<svg width="32" height="32" viewBox="0 0 32 32" fill="none" xmlns="http://www.w3.org/2000/svg">
<path d="M26.652 15.4294C26.5427 13.3306 25.8127 11.3116 24.5546 9.62808C24.1713 10.0409 23.7616 10.4284 23.328 10.7881C21.9959 11.8945 20.5073 12.7977 18.9106 13.4681C19.1333 13.9347 19.3373 14.3867 19.5173 14.8134V14.8174C19.5681 14.9366 19.617 15.0566 19.664 15.1774C21.6826 14.9507 23.8106 15.0334 25.8733 15.3121C26.148 15.3494 26.4066 15.3894 26.652 15.4294V15.4294ZM14.1386 5.49608C15.438 7.32698 16.6362 9.2276 17.728 11.1894C19.3586 10.5467 20.7066 9.73608 21.792 8.83341C22.1687 8.52292 22.5233 8.18655 22.8533 7.82675C20.9346 6.21304 18.507 5.32986 16 5.33341C15.376 5.33299 14.7532 5.38697 14.1386 5.49475V5.49608ZM5.67063 13.3294C6.57893 13.3065 7.48615 13.2518 8.39063 13.1654C10.5768 12.9699 12.7443 12.6034 14.8733 12.0694C13.7606 10.1364 12.5594 8.2557 11.2733 6.43341C9.89958 7.11394 8.68831 8.08196 7.72162 9.2718C6.75493 10.4616 6.05545 11.8455 5.67063 13.3294ZM7.71063 22.7134C8.22796 21.9574 8.90796 21.1067 9.81063 20.1814C11.7493 18.1947 14.0373 16.6481 16.6853 15.7947L16.768 15.7707C16.548 15.2854 16.3413 14.8521 16.1333 14.4441C13.6853 15.1574 11.1066 15.6027 8.53729 15.8334C7.28396 15.9467 6.15996 15.9961 5.33329 16.0041C5.33093 18.4475 6.17102 20.8171 7.71196 22.7134H7.71063ZM20.0066 25.8867C19.4925 23.2938 18.7646 20.7477 17.8306 18.2747C15.1613 19.2441 13.0346 20.6614 11.3906 22.3521C10.7272 23.0219 10.1384 23.7618 9.63463 24.5587C11.473 25.9305 13.7062 26.67 16 26.6667C17.3732 26.6687 18.7338 26.4047 20.0066 25.8894V25.8867ZM22.504 24.4534C24.5857 22.8531 26.0038 20.541 26.4866 17.9601C26.0333 17.8467 25.4586 17.7334 24.8266 17.6454C23.4215 17.4431 21.9957 17.4283 20.5866 17.6014C21.38 19.8399 22.0206 22.1296 22.504 24.4547V24.4534ZM16 29.3334C8.63596 29.3334 2.66663 23.3641 2.66663 16.0001C2.66663 8.63608 8.63596 2.66675 16 2.66675C23.364 2.66675 29.3333 8.63608 29.3333 16.0001C29.3333 23.3641 23.364 29.3334 16 29.3334Z" fill="#2C2C2C"/>
</svg>
