<svg width="70" height="12" viewBox="0 0 70 12" fill="none" xmlns="http://www.w3.org/2000/svg">
<mask id="path-1-outside-1" maskUnits="userSpaceOnUse" x="-0.0457764" y="-0.386719" width="70" height="12" fill="black">
<rect fill="white" x="-0.0457764" y="-0.386719" width="70" height="12"/>
<path d="M13.5185 8.1543C13.3545 8.43555 13.2256 8.66406 13.1318 8.83984C13.0498 9.00391 12.9619 9.14453 12.8681 9.26172C12.7861 9.36719 12.6865 9.4668 12.5693 9.56055C12.4638 9.64258 12.3115 9.74805 12.1123 9.87695C11.9834 9.99414 11.8545 10.0938 11.7256 10.1758C11.6201 10.2578 11.5146 10.3281 11.4092 10.3867C11.3154 10.4453 11.2392 10.4746 11.1806 10.4746C11.1572 10.4746 11.1338 10.4688 11.1103 10.457C11.0869 10.457 11.0634 10.457 11.04 10.457C10.9697 10.457 10.8994 10.457 10.8291 10.457C10.7705 10.4688 10.7177 10.4277 10.6709 10.334C10.6357 10.3691 10.6064 10.4102 10.583 10.457C10.5595 10.5039 10.5361 10.5449 10.5127 10.5801C10.4892 10.627 10.4541 10.6621 10.4072 10.6855C10.372 10.709 10.3193 10.709 10.249 10.6855L10.1611 10.5801L9.89743 10.8086C9.56931 10.6445 9.2529 10.5039 8.94821 10.3867C8.65525 10.2812 8.39157 10.1523 8.1572 10C7.92282 9.84766 7.7236 9.6543 7.55954 9.41992C7.39548 9.17383 7.27829 8.83984 7.20798 8.41797C7.14939 8.34766 7.08493 8.28906 7.01462 8.24219C6.94431 8.18359 6.86228 8.16602 6.76853 8.18945C6.65134 8.38867 6.51071 8.55859 6.34665 8.69922C6.18259 8.83984 6.01853 8.99219 5.85446 9.15625C5.79587 9.21484 5.749 9.2793 5.71384 9.34961C5.67868 9.41992 5.63181 9.48438 5.57321 9.54297C5.47946 9.64844 5.36814 9.72461 5.23923 9.77148C5.11032 9.80664 4.98142 9.8418 4.85251 9.87695C4.7236 9.91211 4.60056 9.9707 4.48337 10.0527C4.3779 10.1348 4.30173 10.2754 4.25485 10.4746C4.11423 10.3926 3.9736 10.3691 3.83298 10.4043C3.72751 10.4277 3.61618 10.4512 3.499 10.4746C3.38181 10.5098 3.26462 10.5273 3.14743 10.5273C3.04196 10.5391 2.9365 10.5273 2.83103 10.4922C2.72556 10.457 2.63181 10.3809 2.54978 10.2637C2.38571 10.334 2.23337 10.3281 2.09275 10.2461C1.95212 10.1758 1.81735 10.0762 1.68845 9.94727C1.57126 9.80664 1.45407 9.66016 1.33689 9.50781C1.2197 9.35547 1.10837 9.24414 1.0029 9.17383C0.932589 8.98633 0.938448 8.82812 1.02048 8.69922C1.09079 8.55859 1.17282 8.42969 1.26657 8.3125C1.3486 8.18359 1.4072 8.06055 1.44235 7.94336C1.47751 7.81445 1.42478 7.66211 1.28415 7.48633C1.40134 7.31055 1.50681 7.12891 1.60056 6.94141C1.69431 6.74219 1.78806 6.54883 1.88181 6.36133C1.98728 6.16211 2.09275 5.97461 2.19821 5.79883C2.3154 5.61133 2.45603 5.45312 2.62009 5.32422C2.54978 5.24219 2.51462 5.16602 2.51462 5.0957C2.51462 5.01367 2.5322 4.9375 2.56735 4.86719C2.60251 4.78516 2.64353 4.70898 2.6904 4.63867C2.73728 4.55664 2.77243 4.48047 2.79587 4.41016L3.30564 4.16406L3.18259 3.74219C3.3115 3.76562 3.40525 3.75977 3.46384 3.72461C3.53415 3.68945 3.58103 3.63672 3.60446 3.56641C3.63962 3.49609 3.66306 3.41992 3.67478 3.33789C3.69821 3.24414 3.72751 3.16211 3.76267 3.0918C3.82126 2.98633 3.90915 2.91016 4.02634 2.86328C4.27243 2.67578 4.51267 2.47656 4.74704 2.26562C4.99314 2.05469 5.23337 1.84961 5.46775 1.65039C5.71384 1.45117 5.96579 1.26367 6.2236 1.08789C6.48142 0.900391 6.76267 0.742188 7.06735 0.613281C7.27829 0.648438 7.44235 0.712891 7.55954 0.806641C7.68845 0.900391 7.7822 1.01172 7.84079 1.14062C7.9111 1.26953 7.96384 1.41602 7.999 1.58008C8.03415 1.73242 8.06931 1.88477 8.10446 2.03711C8.16306 2.23633 8.23337 2.40625 8.3154 2.54688C8.39743 2.6875 8.53806 2.80469 8.73728 2.89844C8.57321 3.17969 8.50876 3.46094 8.54392 3.74219C8.57907 4.01172 8.61423 4.29883 8.64939 4.60352C8.68454 4.88477 8.67868 5.16016 8.63181 5.42969C8.59665 5.69922 8.42673 5.93945 8.12204 6.15039C8.0986 6.23242 8.09275 6.32031 8.10446 6.41406C8.11618 6.50781 8.12204 6.60156 8.12204 6.69531C8.12204 6.78906 8.10446 6.87695 8.06931 6.95898C8.03415 7.04102 7.9697 7.10547 7.87595 7.15234C7.98142 7.28125 8.03415 7.41016 8.03415 7.53906C8.04587 7.66797 8.05173 7.79102 8.05173 7.9082C8.06345 8.02539 8.09275 8.13086 8.13962 8.22461C8.19821 8.31836 8.32712 8.38867 8.52634 8.43555C8.5615 8.58789 8.59079 8.70508 8.61423 8.78711C8.64939 8.85742 8.68454 8.91602 8.7197 8.96289C8.76657 9.00977 8.82517 9.05664 8.89548 9.10352C8.96579 9.13867 9.05954 9.19727 9.17673 9.2793C9.27048 9.30273 9.37595 9.30273 9.49314 9.2793C9.61032 9.25586 9.70407 9.29102 9.77439 9.38477C9.83298 9.32617 9.90329 9.29688 9.98532 9.29688C10.0674 9.28516 10.1435 9.28516 10.2138 9.29688L10.4424 9.68359C10.5713 9.58984 10.7177 9.50781 10.8818 9.4375C11.0459 9.36719 11.2041 9.30859 11.3564 9.26172C11.5322 9.21484 11.708 9.17383 11.8838 9.13867L13.5185 8.1543ZM6.76853 2.14258C6.66306 2.23633 6.53415 2.33008 6.38181 2.42383C6.22946 2.51758 6.07712 2.61719 5.92478 2.72266C5.78415 2.82812 5.6611 2.94531 5.55564 3.07422C5.45017 3.19141 5.38571 3.33203 5.36228 3.49609C5.09275 3.54297 4.90525 3.6543 4.79978 3.83008C4.69431 4.00586 4.60642 4.19922 4.5361 4.41016C4.46579 4.62109 4.38962 4.83203 4.30759 5.04297C4.22556 5.24219 4.07907 5.40039 3.86814 5.51758C3.79782 5.56445 3.73337 5.58789 3.67478 5.58789C3.6865 5.58789 3.65134 5.61133 3.56931 5.6582C3.4404 5.75195 3.32907 5.86914 3.23532 6.00977C3.14157 6.15039 3.05954 6.30273 2.98923 6.4668C2.93064 6.63086 2.87204 6.80078 2.81345 6.97656C2.76657 7.14062 2.7197 7.29297 2.67282 7.43359C2.50876 7.45703 2.38571 7.49219 2.30368 7.53906C2.22165 7.58594 2.16892 7.63867 2.14548 7.69727C2.13376 7.74414 2.13962 7.80273 2.16306 7.87305C2.1865 7.94336 2.22165 8.01953 2.26853 8.10156C2.3154 8.17188 2.36228 8.25391 2.40915 8.34766C2.46775 8.44141 2.51462 8.53516 2.54978 8.62891C2.58493 8.72266 2.60251 8.81641 2.60251 8.91016C2.61423 9.00391 2.59079 9.0918 2.5322 9.17383C2.69626 9.30273 2.85446 9.33203 3.00681 9.26172C3.15915 9.17969 3.29978 9.0918 3.42868 8.99805C3.47556 8.96289 3.52243 8.92773 3.56931 8.89258C3.6279 8.8457 3.6865 8.81055 3.74509 8.78711C4.01462 8.8457 4.26071 8.82812 4.48337 8.73438C4.70603 8.64062 4.9111 8.51172 5.0986 8.34766C5.2861 8.18359 5.46775 8.00781 5.64353 7.82031C5.81931 7.63281 5.99509 7.46875 6.17087 7.32812L6.03025 7.1875C6.24118 7.12891 6.38767 7.05273 6.4697 6.95898C6.56345 6.85352 6.62204 6.73633 6.64548 6.60742C6.66892 6.47852 6.66892 6.34375 6.64548 6.20312C6.62204 6.05078 6.60446 5.89258 6.59275 5.72852C6.58103 5.63477 6.57517 5.54688 6.57517 5.46484C6.58689 5.37109 6.61032 5.27734 6.64548 5.18359C6.55173 4.91406 6.53415 4.65625 6.59275 4.41016C6.66306 4.16406 6.75095 3.92969 6.85642 3.70703C6.9736 3.47266 7.08493 3.23828 7.1904 3.00391C7.29587 2.76953 7.3486 2.52344 7.3486 2.26562L6.76853 2.14258Z"/>
<path d="M22.4482 9.36719C22.4599 9.50781 22.4365 9.61328 22.3779 9.68359C22.3193 9.75391 22.2373 9.80664 22.1318 9.8418C22.0381 9.87695 21.9326 9.90625 21.8154 9.92969C21.6982 9.94141 21.5986 9.9707 21.5166 10.0176C21.1767 9.98242 20.8486 9.93555 20.5322 9.87695C20.2158 9.80664 19.9228 9.70703 19.6533 9.57812C19.3838 9.4375 19.1377 9.25586 18.915 9.0332C18.7041 8.81055 18.5224 8.5293 18.3701 8.18945C18.5224 7.94336 18.5752 7.67383 18.5283 7.38086C18.4814 7.07617 18.4345 6.7832 18.3877 6.50195C18.3525 6.2207 18.3584 5.96289 18.4052 5.72852C18.4638 5.49414 18.6689 5.30664 19.0205 5.16602C18.997 5.03711 18.997 4.89648 19.0205 4.74414C19.0556 4.5918 19.0146 4.46289 18.8974 4.35742C18.4873 4.49805 18.1299 4.69727 17.8252 4.95508C17.5205 5.21289 17.2275 5.49414 16.9463 5.79883C16.6767 6.10352 16.4013 6.41406 16.1201 6.73047C15.8506 7.03516 15.5517 7.30469 15.2236 7.53906C15.0713 7.55078 14.9072 7.54492 14.7314 7.52148C14.5674 7.48633 14.4267 7.5332 14.3095 7.66211C14.3213 7.74414 14.3506 7.81445 14.3974 7.87305C14.4443 7.93164 14.4795 7.99023 14.5029 8.04883C14.5381 8.10742 14.5556 8.17188 14.5556 8.24219C14.5556 8.30078 14.5146 8.37109 14.4326 8.45312C14.3154 8.57031 14.1865 8.66992 14.0459 8.75195C13.917 8.82227 13.7881 8.9043 13.6592 8.99805C13.542 9.08008 13.4424 9.17969 13.3603 9.29688C13.2783 9.41406 13.2373 9.57227 13.2373 9.77148C13.167 9.73633 13.1025 9.73047 13.0439 9.75391C12.9853 9.76562 12.9326 9.79492 12.8857 9.8418C12.8271 9.88867 12.7744 9.94141 12.7275 10C12.6806 10.0586 12.6338 10.1055 12.5869 10.1406C12.5634 10.1992 12.5693 10.2461 12.6045 10.2812C12.6396 10.3281 12.6806 10.375 12.7275 10.4219C12.6806 10.5508 12.622 10.627 12.5517 10.6504C12.4697 10.6855 12.3877 10.6914 12.3056 10.668C12.2119 10.6445 12.124 10.6035 12.042 10.5449C11.9482 10.498 11.8662 10.457 11.7959 10.4219C11.7607 10.2695 11.7373 10.0938 11.7256 9.89453C11.7138 9.69531 11.7197 9.50195 11.7431 9.31445C11.7666 9.11523 11.8134 8.92773 11.8838 8.75195C11.9541 8.57617 12.0595 8.42969 12.2002 8.3125C12.247 8.27734 12.2763 8.25977 12.2881 8.25977C12.2998 8.24805 12.3056 8.24219 12.3056 8.24219C12.3056 8.24219 12.3115 8.24219 12.3232 8.24219C12.3349 8.23047 12.3584 8.20703 12.3935 8.17188C12.4873 8.06641 12.5517 7.95508 12.5869 7.83789C12.622 7.70898 12.6513 7.58008 12.6748 7.45117C12.6982 7.32227 12.7334 7.19922 12.7802 7.08203C12.8154 6.95312 12.8857 6.8418 12.9912 6.74805C12.9443 6.56055 12.9443 6.39648 12.9912 6.25586C13.0498 6.10352 13.1201 5.96289 13.2021 5.83398C13.2959 5.69336 13.3838 5.55859 13.4658 5.42969C13.5595 5.28906 13.6181 5.13672 13.6416 4.97266C13.6533 4.91406 13.6533 4.86133 13.6416 4.81445C13.6416 4.75586 13.6416 4.69727 13.6416 4.63867C13.6181 4.45117 13.6357 4.31055 13.6943 4.2168C13.7646 4.11133 13.8467 4.0293 13.9404 3.9707C14.0459 3.90039 14.1513 3.83008 14.2568 3.75977C14.374 3.68945 14.4736 3.58398 14.5556 3.44336C14.8955 3.60742 15.0947 3.83008 15.1533 4.11133C15.2236 4.38086 15.247 4.68555 15.2236 5.02539C15.0244 5.1543 14.872 5.33594 14.7666 5.57031C14.6611 5.79297 14.5908 6.00977 14.5556 6.2207C14.5791 6.29102 14.6084 6.33203 14.6435 6.34375C14.6904 6.34375 14.7373 6.33789 14.7842 6.32617C14.8427 6.30273 14.8955 6.2793 14.9424 6.25586C14.9892 6.23242 15.0361 6.2207 15.083 6.2207C15.5049 5.92773 15.9209 5.59961 16.331 5.23633C16.7529 4.87305 17.081 4.45703 17.3154 3.98828C17.6552 3.82422 17.9775 3.63672 18.2822 3.42578C18.5869 3.20312 18.9209 3.03906 19.2842 2.93359L19.6884 2.5293C19.747 2.62305 19.8174 2.64648 19.8994 2.59961C19.9814 2.54102 20.0634 2.47656 20.1455 2.40625C20.2275 2.33594 20.3037 2.29492 20.374 2.2832C20.456 2.27148 20.5322 2.35352 20.6025 2.5293C20.7197 2.83398 20.749 3.13281 20.6904 3.42578C20.6318 3.70703 20.5381 3.98828 20.4092 4.26953C20.292 4.53906 20.1689 4.81445 20.04 5.0957C19.9111 5.37695 19.8349 5.66406 19.8115 5.95703C19.8115 6.02734 19.8115 6.10352 19.8115 6.18555C19.8115 6.25586 19.8056 6.33203 19.7939 6.41406C19.7705 6.66016 19.7353 6.92969 19.6884 7.22266C19.6533 7.50391 19.6709 7.76172 19.7412 7.99609C19.7998 8.20703 19.9228 8.39453 20.1103 8.55859C20.2978 8.72266 20.4619 8.88672 20.6025 9.05078C20.6845 9.03906 20.7666 9.04492 20.8486 9.06836C20.9306 9.0918 21.0068 9.11523 21.0771 9.13867C21.1592 9.16211 21.2353 9.17383 21.3056 9.17383C21.3759 9.16211 21.4463 9.12109 21.5166 9.05078C21.5986 9.01562 21.6748 9.02148 21.7451 9.06836C21.8271 9.10352 21.9033 9.15039 21.9736 9.20898C22.0439 9.26758 22.1142 9.32031 22.1845 9.36719C22.2666 9.40234 22.3545 9.40234 22.4482 9.36719Z"/>
<path d="M32.9775 9.36719C32.9892 9.50781 32.9658 9.61328 32.9072 9.68359C32.8486 9.75391 32.7666 9.80664 32.6611 9.8418C32.5674 9.87695 32.4619 9.90625 32.3447 9.92969C32.2275 9.94141 32.1279 9.9707 32.0459 10.0176C31.706 9.98242 31.3779 9.93555 31.0615 9.87695C30.7451 9.80664 30.4521 9.70703 30.1826 9.57812C29.9131 9.4375 29.667 9.25586 29.4443 9.0332C29.2334 8.81055 29.0517 8.5293 28.8994 8.18945C29.0517 7.94336 29.1045 7.67383 29.0576 7.38086C29.0107 7.07617 28.9638 6.7832 28.917 6.50195C28.8818 6.2207 28.8877 5.96289 28.9345 5.72852C28.9931 5.49414 29.1982 5.30664 29.5498 5.16602C29.5263 5.03711 29.5263 4.89648 29.5498 4.74414C29.5849 4.5918 29.5439 4.46289 29.4267 4.35742C29.0166 4.49805 28.6592 4.69727 28.3545 4.95508C28.0498 5.21289 27.7568 5.49414 27.4756 5.79883C27.206 6.10352 26.9306 6.41406 26.6494 6.73047C26.3799 7.03516 26.081 7.30469 25.7529 7.53906C25.6006 7.55078 25.4365 7.54492 25.2607 7.52148C25.0967 7.48633 24.956 7.5332 24.8388 7.66211C24.8506 7.74414 24.8799 7.81445 24.9267 7.87305C24.9736 7.93164 25.0088 7.99023 25.0322 8.04883C25.0674 8.10742 25.0849 8.17188 25.0849 8.24219C25.0849 8.30078 25.0439 8.37109 24.9619 8.45312C24.8447 8.57031 24.7158 8.66992 24.5752 8.75195C24.4463 8.82227 24.3174 8.9043 24.1884 8.99805C24.0713 9.08008 23.9717 9.17969 23.8896 9.29688C23.8076 9.41406 23.7666 9.57227 23.7666 9.77148C23.6963 9.73633 23.6318 9.73047 23.5732 9.75391C23.5146 9.76562 23.4619 9.79492 23.415 9.8418C23.3564 9.88867 23.3037 9.94141 23.2568 10C23.2099 10.0586 23.1631 10.1055 23.1162 10.1406C23.0927 10.1992 23.0986 10.2461 23.1338 10.2812C23.1689 10.3281 23.2099 10.375 23.2568 10.4219C23.2099 10.5508 23.1513 10.627 23.081 10.6504C22.999 10.6855 22.917 10.6914 22.8349 10.668C22.7412 10.6445 22.6533 10.6035 22.5713 10.5449C22.4775 10.498 22.3955 10.457 22.3252 10.4219C22.29 10.2695 22.2666 10.0938 22.2549 9.89453C22.2431 9.69531 22.249 9.50195 22.2724 9.31445C22.2959 9.11523 22.3427 8.92773 22.4131 8.75195C22.4834 8.57617 22.5888 8.42969 22.7295 8.3125C22.7763 8.27734 22.8056 8.25977 22.8174 8.25977C22.8291 8.24805 22.8349 8.24219 22.8349 8.24219C22.8349 8.24219 22.8408 8.24219 22.8525 8.24219C22.8642 8.23047 22.8877 8.20703 22.9228 8.17188C23.0166 8.06641 23.081 7.95508 23.1162 7.83789C23.1513 7.70898 23.1806 7.58008 23.2041 7.45117C23.2275 7.32227 23.2627 7.19922 23.3095 7.08203C23.3447 6.95312 23.415 6.8418 23.5205 6.74805C23.4736 6.56055 23.4736 6.39648 23.5205 6.25586C23.5791 6.10352 23.6494 5.96289 23.7314 5.83398C23.8252 5.69336 23.9131 5.55859 23.9951 5.42969C24.0888 5.28906 24.1474 5.13672 24.1709 4.97266C24.1826 4.91406 24.1826 4.86133 24.1709 4.81445C24.1709 4.75586 24.1709 4.69727 24.1709 4.63867C24.1474 4.45117 24.165 4.31055 24.2236 4.2168C24.2939 4.11133 24.3759 4.0293 24.4697 3.9707C24.5752 3.90039 24.6806 3.83008 24.7861 3.75977C24.9033 3.68945 25.0029 3.58398 25.0849 3.44336C25.4248 3.60742 25.624 3.83008 25.6826 4.11133C25.7529 4.38086 25.7763 4.68555 25.7529 5.02539C25.5537 5.1543 25.4013 5.33594 25.2959 5.57031C25.1904 5.79297 25.1201 6.00977 25.0849 6.2207C25.1084 6.29102 25.1377 6.33203 25.1728 6.34375C25.2197 6.34375 25.2666 6.33789 25.3134 6.32617C25.372 6.30273 25.4248 6.2793 25.4717 6.25586C25.5185 6.23242 25.5654 6.2207 25.6123 6.2207C26.0342 5.92773 26.4502 5.59961 26.8603 5.23633C27.2822 4.87305 27.6103 4.45703 27.8447 3.98828C28.1845 3.82422 28.5068 3.63672 28.8115 3.42578C29.1162 3.20312 29.4502 3.03906 29.8134 2.93359L30.2177 2.5293C30.2763 2.62305 30.3467 2.64648 30.4287 2.59961C30.5107 2.54102 30.5927 2.47656 30.6748 2.40625C30.7568 2.33594 30.833 2.29492 30.9033 2.2832C30.9853 2.27148 31.0615 2.35352 31.1318 2.5293C31.249 2.83398 31.2783 3.13281 31.2197 3.42578C31.1611 3.70703 31.0674 3.98828 30.9384 4.26953C30.8213 4.53906 30.6982 4.81445 30.5693 5.0957C30.4404 5.37695 30.3642 5.66406 30.3408 5.95703C30.3408 6.02734 30.3408 6.10352 30.3408 6.18555C30.3408 6.25586 30.3349 6.33203 30.3232 6.41406C30.2998 6.66016 30.2646 6.92969 30.2177 7.22266C30.1826 7.50391 30.2002 7.76172 30.2705 7.99609C30.3291 8.20703 30.4521 8.39453 30.6396 8.55859C30.8271 8.72266 30.9912 8.88672 31.1318 9.05078C31.2138 9.03906 31.2959 9.04492 31.3779 9.06836C31.4599 9.0918 31.5361 9.11523 31.6064 9.13867C31.6884 9.16211 31.7646 9.17383 31.8349 9.17383C31.9052 9.16211 31.9756 9.12109 32.0459 9.05078C32.1279 9.01562 32.2041 9.02148 32.2744 9.06836C32.3564 9.10352 32.4326 9.15039 32.5029 9.20898C32.5732 9.26758 32.6435 9.32031 32.7138 9.36719C32.7959 9.40234 32.8838 9.40234 32.9775 9.36719Z"/>
<path d="M46.249 8.1543C46.0849 8.43555 45.956 8.66406 45.8623 8.83984C45.7802 9.00391 45.6924 9.14453 45.5986 9.26172C45.5166 9.36719 45.417 9.4668 45.2998 9.56055C45.1943 9.64258 45.042 9.74805 44.8427 9.87695C44.7138 9.99414 44.5849 10.0938 44.456 10.1758C44.3506 10.2578 44.2451 10.3281 44.1396 10.3867C44.0459 10.4453 43.9697 10.4746 43.9111 10.4746C43.8877 10.4746 43.8642 10.4688 43.8408 10.457C43.8174 10.457 43.7939 10.457 43.7705 10.457C43.7002 10.457 43.6299 10.457 43.5595 10.457C43.5009 10.4688 43.4482 10.4277 43.4013 10.334C43.3662 10.3691 43.3369 10.4102 43.3134 10.457C43.29 10.5039 43.2666 10.5449 43.2431 10.5801C43.2197 10.627 43.1845 10.6621 43.1377 10.6855C43.1025 10.709 43.0498 10.709 42.9795 10.6855L42.8916 10.5801L42.6279 10.8086C42.2998 10.6445 41.9834 10.5039 41.6787 10.3867C41.3857 10.2812 41.122 10.1523 40.8877 10C40.6533 9.84766 40.4541 9.6543 40.29 9.41992C40.1259 9.17383 40.0088 8.83984 39.9384 8.41797C39.8799 8.34766 39.8154 8.28906 39.7451 8.24219C39.6748 8.18359 39.5927 8.16602 39.499 8.18945C39.3818 8.38867 39.2412 8.55859 39.0771 8.69922C38.9131 8.83984 38.749 8.99219 38.5849 9.15625C38.5263 9.21484 38.4795 9.2793 38.4443 9.34961C38.4092 9.41992 38.3623 9.48438 38.3037 9.54297C38.2099 9.64844 38.0986 9.72461 37.9697 9.77148C37.8408 9.80664 37.7119 9.8418 37.583 9.87695C37.4541 9.91211 37.331 9.9707 37.2138 10.0527C37.1084 10.1348 37.0322 10.2754 36.9853 10.4746C36.8447 10.3926 36.7041 10.3691 36.5634 10.4043C36.458 10.4277 36.3467 10.4512 36.2295 10.4746C36.1123 10.5098 35.9951 10.5273 35.8779 10.5273C35.7724 10.5391 35.667 10.5273 35.5615 10.4922C35.456 10.457 35.3623 10.3809 35.2802 10.2637C35.1162 10.334 34.9638 10.3281 34.8232 10.2461C34.6826 10.1758 34.5478 10.0762 34.4189 9.94727C34.3017 9.80664 34.1845 9.66016 34.0674 9.50781C33.9502 9.35547 33.8388 9.24414 33.7334 9.17383C33.6631 8.98633 33.6689 8.82812 33.7509 8.69922C33.8213 8.55859 33.9033 8.42969 33.997 8.3125C34.0791 8.18359 34.1377 8.06055 34.1728 7.94336C34.208 7.81445 34.1552 7.66211 34.0146 7.48633C34.1318 7.31055 34.2373 7.12891 34.331 6.94141C34.4248 6.74219 34.5185 6.54883 34.6123 6.36133C34.7177 6.16211 34.8232 5.97461 34.9287 5.79883C35.0459 5.61133 35.1865 5.45312 35.3506 5.32422C35.2802 5.24219 35.2451 5.16602 35.2451 5.0957C35.2451 5.01367 35.2627 4.9375 35.2978 4.86719C35.333 4.78516 35.374 4.70898 35.4209 4.63867C35.4677 4.55664 35.5029 4.48047 35.5263 4.41016L36.0361 4.16406L35.9131 3.74219C36.042 3.76562 36.1357 3.75977 36.1943 3.72461C36.2646 3.68945 36.3115 3.63672 36.3349 3.56641C36.3701 3.49609 36.3935 3.41992 36.4052 3.33789C36.4287 3.24414 36.458 3.16211 36.4931 3.0918C36.5517 2.98633 36.6396 2.91016 36.7568 2.86328C37.0029 2.67578 37.2431 2.47656 37.4775 2.26562C37.7236 2.05469 37.9638 1.84961 38.1982 1.65039C38.4443 1.45117 38.6963 1.26367 38.9541 1.08789C39.2119 0.900391 39.4931 0.742188 39.7978 0.613281C40.0088 0.648438 40.1728 0.712891 40.29 0.806641C40.4189 0.900391 40.5127 1.01172 40.5713 1.14062C40.6416 1.26953 40.6943 1.41602 40.7295 1.58008C40.7646 1.73242 40.7998 1.88477 40.8349 2.03711C40.8935 2.23633 40.9638 2.40625 41.0459 2.54688C41.1279 2.6875 41.2685 2.80469 41.4677 2.89844C41.3037 3.17969 41.2392 3.46094 41.2744 3.74219C41.3095 4.01172 41.3447 4.29883 41.3799 4.60352C41.415 4.88477 41.4092 5.16016 41.3623 5.42969C41.3271 5.69922 41.1572 5.93945 40.8525 6.15039C40.8291 6.23242 40.8232 6.32031 40.8349 6.41406C40.8467 6.50781 40.8525 6.60156 40.8525 6.69531C40.8525 6.78906 40.8349 6.87695 40.7998 6.95898C40.7646 7.04102 40.7002 7.10547 40.6064 7.15234C40.7119 7.28125 40.7646 7.41016 40.7646 7.53906C40.7763 7.66797 40.7822 7.79102 40.7822 7.9082C40.7939 8.02539 40.8232 8.13086 40.8701 8.22461C40.9287 8.31836 41.0576 8.38867 41.2568 8.43555C41.292 8.58789 41.3213 8.70508 41.3447 8.78711C41.3799 8.85742 41.415 8.91602 41.4502 8.96289C41.497 9.00977 41.5556 9.05664 41.6259 9.10352C41.6963 9.13867 41.79 9.19727 41.9072 9.2793C42.0009 9.30273 42.1064 9.30273 42.2236 9.2793C42.3408 9.25586 42.4345 9.29102 42.5049 9.38477C42.5634 9.32617 42.6338 9.29688 42.7158 9.29688C42.7978 9.28516 42.874 9.28516 42.9443 9.29688L43.1728 9.68359C43.3017 9.58984 43.4482 9.50781 43.6123 9.4375C43.7763 9.36719 43.9345 9.30859 44.0869 9.26172C44.2627 9.21484 44.4384 9.17383 44.6142 9.13867L46.249 8.1543ZM39.499 2.14258C39.3935 2.23633 39.2646 2.33008 39.1123 2.42383C38.9599 2.51758 38.8076 2.61719 38.6552 2.72266C38.5146 2.82812 38.3916 2.94531 38.2861 3.07422C38.1806 3.19141 38.1162 3.33203 38.0927 3.49609C37.8232 3.54297 37.6357 3.6543 37.5302 3.83008C37.4248 4.00586 37.3369 4.19922 37.2666 4.41016C37.1963 4.62109 37.1201 4.83203 37.0381 5.04297C36.956 5.24219 36.8095 5.40039 36.5986 5.51758C36.5283 5.56445 36.4638 5.58789 36.4052 5.58789C36.417 5.58789 36.3818 5.61133 36.2998 5.6582C36.1709 5.75195 36.0595 5.86914 35.9658 6.00977C35.872 6.15039 35.79 6.30273 35.7197 6.4668C35.6611 6.63086 35.6025 6.80078 35.5439 6.97656C35.497 7.14062 35.4502 7.29297 35.4033 7.43359C35.2392 7.45703 35.1162 7.49219 35.0342 7.53906C34.9521 7.58594 34.8994 7.63867 34.8759 7.69727C34.8642 7.74414 34.8701 7.80273 34.8935 7.87305C34.917 7.94336 34.9521 8.01953 34.999 8.10156C35.0459 8.17188 35.0927 8.25391 35.1396 8.34766C35.1982 8.44141 35.2451 8.53516 35.2802 8.62891C35.3154 8.72266 35.333 8.81641 35.333 8.91016C35.3447 9.00391 35.3213 9.0918 35.2627 9.17383C35.4267 9.30273 35.5849 9.33203 35.7373 9.26172C35.8896 9.17969 36.0302 9.0918 36.1592 8.99805C36.206 8.96289 36.2529 8.92773 36.2998 8.89258C36.3584 8.8457 36.417 8.81055 36.4756 8.78711C36.7451 8.8457 36.9912 8.82812 37.2138 8.73438C37.4365 8.64062 37.6416 8.51172 37.8291 8.34766C38.0166 8.18359 38.1982 8.00781 38.374 7.82031C38.5498 7.63281 38.7256 7.46875 38.9013 7.32812L38.7607 7.1875C38.9717 7.12891 39.1181 7.05273 39.2002 6.95898C39.2939 6.85352 39.3525 6.73633 39.3759 6.60742C39.3994 6.47852 39.3994 6.34375 39.3759 6.20312C39.3525 6.05078 39.3349 5.89258 39.3232 5.72852C39.3115 5.63477 39.3056 5.54688 39.3056 5.46484C39.3174 5.37109 39.3408 5.27734 39.3759 5.18359C39.2822 4.91406 39.2646 4.65625 39.3232 4.41016C39.3935 4.16406 39.4814 3.92969 39.5869 3.70703C39.7041 3.47266 39.8154 3.23828 39.9209 3.00391C40.0263 2.76953 40.0791 2.52344 40.0791 2.26562L39.499 2.14258Z"/>
<path d="M64.5127 6.51953C64.2431 6.64844 64.0615 6.80664 63.9677 6.99414C63.874 7.18164 63.7978 7.375 63.7392 7.57422C63.6924 7.77344 63.6279 7.9668 63.5459 8.1543C63.4756 8.33008 63.3174 8.47656 63.0713 8.59375C63.0127 8.80469 62.8955 8.95117 62.7197 9.0332C62.5556 9.11523 62.3799 9.19141 62.1924 9.26172C62.0049 9.32031 61.8349 9.40234 61.6826 9.50781C61.542 9.61328 61.4717 9.79492 61.4717 10.0527C61.2373 10.1816 60.9795 10.2988 60.6982 10.4043C60.4287 10.5098 60.1416 10.5859 59.8369 10.6328C59.5439 10.6914 59.2509 10.7148 58.958 10.7031C58.665 10.6914 58.3896 10.6328 58.1318 10.5273C57.956 10.4453 57.7861 10.3398 57.622 10.2109C57.5634 10.1641 57.5049 10.123 57.4463 10.0879C57.3994 10.0645 57.3467 10.0234 57.2881 9.96484C57.1474 9.82422 57.0302 9.66016 56.9365 9.47266C56.8427 9.28516 56.7666 9.08594 56.708 8.875C56.6494 8.66406 56.6025 8.45312 56.5674 8.24219C56.5322 8.03125 56.5029 7.83203 56.4795 7.64453L57.1299 5.88672C56.79 5.61719 56.5146 5.30664 56.3037 4.95508C56.0927 4.5918 55.8349 4.25781 55.5302 3.95312C55.4717 4.03516 55.3955 4.10547 55.3017 4.16406C55.208 4.22266 55.1728 4.31641 55.1963 4.44531L55.372 4.60352C54.9853 5.02539 54.5927 5.50586 54.1943 6.04492C53.8076 6.57227 53.5029 7.10547 53.2802 7.64453C53.0224 7.63281 52.8408 7.69727 52.7353 7.83789C52.6299 7.9668 52.542 8.11914 52.4717 8.29492C52.4013 8.45898 52.3134 8.61133 52.208 8.75195C52.1025 8.89258 51.9267 8.95117 51.6806 8.92773C51.622 9.05664 51.5634 9.19727 51.5049 9.34961C51.4463 9.49023 51.3759 9.625 51.2939 9.75391C51.2119 9.88281 51.1123 9.98828 50.9951 10.0703C50.8779 10.1641 50.7314 10.2109 50.5556 10.2109C50.4619 10.1172 50.4092 10.0176 50.3974 9.91211C50.3857 9.80664 50.3974 9.70117 50.4326 9.5957C50.4677 9.47852 50.5146 9.36719 50.5732 9.26172C50.6318 9.14453 50.6728 9.0332 50.6963 8.92773C50.79 8.58789 50.9599 8.2832 51.206 8.01367C51.4521 7.73242 51.6982 7.45703 51.9443 7.1875C52.1904 6.90625 52.4013 6.61328 52.5771 6.30859C52.7529 6.00391 52.8232 5.64648 52.7881 5.23633C52.9404 5.22461 53.0927 5.19531 53.2451 5.14844C53.4092 5.08984 53.5556 5.01953 53.6845 4.9375C53.8252 4.84375 53.9306 4.73242 54.0009 4.60352C54.083 4.46289 54.1123 4.29883 54.0888 4.11133C53.9951 4.06445 53.9424 4 53.9306 3.91797C53.9189 3.82422 53.9189 3.73047 53.9306 3.63672C54.1884 3.55469 54.3935 3.41406 54.5459 3.21484C54.7099 3.00391 54.8564 2.78125 54.9853 2.54688C55.1142 2.3125 55.2373 2.07812 55.3545 1.84375C55.4834 1.59766 55.6474 1.38672 55.8467 1.21094C56.0107 1.30469 56.1748 1.38672 56.3388 1.45703C56.5029 1.51562 56.6611 1.59766 56.8134 1.70312C56.708 1.84375 56.6435 1.97852 56.6201 2.10742C56.5967 2.23633 56.5849 2.37109 56.5849 2.51172C56.5849 2.64062 56.5849 2.76953 56.5849 2.89844C56.5849 3.02734 56.5498 3.16211 56.4795 3.30273C56.667 3.4668 56.8252 3.66016 56.9541 3.88281C57.083 4.10547 57.247 4.29297 57.4463 4.44531C57.5869 4.33984 57.7451 4.28711 57.9209 4.28711C58.0967 4.27539 58.2724 4.27539 58.4482 4.28711C58.6357 4.28711 58.8115 4.27539 58.9756 4.25195C59.1396 4.2168 59.2744 4.11719 59.3799 3.95312C59.4267 4 59.497 4.02344 59.5908 4.02344C59.6845 4.02344 59.7783 4.02344 59.872 4.02344C59.9658 4.02344 60.0478 4.04102 60.1181 4.07617C60.1884 4.09961 60.2295 4.15234 60.2412 4.23438C60.2529 4.32812 60.247 4.39258 60.2236 4.42773C60.2119 4.46289 60.1943 4.52148 60.1709 4.60352C60.1474 4.69727 60.1416 4.74414 60.1533 4.74414C60.165 4.74414 60.1533 4.78516 60.1181 4.86719C60.0595 5.01953 59.9599 5.14844 59.8193 5.25391C59.6904 5.35938 59.5556 5.46484 59.415 5.57031C59.2861 5.66406 59.1631 5.77539 59.0459 5.9043C58.9404 6.02148 58.8877 6.17383 58.8877 6.36133C58.6299 6.45508 58.4482 6.5957 58.3427 6.7832C58.2373 6.95898 58.167 7.16406 58.1318 7.39844C58.0967 7.62109 58.0732 7.85547 58.0615 8.10156C58.0498 8.33594 58.0088 8.55273 57.9384 8.75195L58.0967 8.92773L58.2373 8.75195C58.4013 8.98633 58.5947 9.13281 58.8174 9.19141C59.0517 9.25 59.292 9.26758 59.5381 9.24414C59.6552 9.06836 59.79 8.92773 59.9424 8.82227C60.1064 8.7168 60.2763 8.62891 60.4521 8.55859C60.6396 8.48828 60.8271 8.42383 61.0146 8.36523C61.2138 8.30664 61.4013 8.23633 61.5771 8.1543C61.7177 8.08398 61.8349 8.00781 61.9287 7.92578C62.0342 7.84375 62.1455 7.75 62.2627 7.64453C62.6142 7.31641 62.9599 6.99414 63.2998 6.67773C63.6513 6.36133 64.0029 6.03906 64.3545 5.71094C64.4248 5.71094 64.4717 5.74609 64.4951 5.81641C64.5185 5.88672 64.5302 5.96875 64.5302 6.0625C64.5302 6.14453 64.5244 6.23242 64.5127 6.32617C64.5127 6.4082 64.5127 6.47266 64.5127 6.51953Z"/>
<path d="M69.2529 8.73438C69.2412 8.91016 69.2177 9.11523 69.1826 9.34961C69.1474 9.58398 69.083 9.80078 68.9892 10C68.8955 10.1992 68.7724 10.3691 68.6201 10.5098C68.4677 10.6504 68.2685 10.709 68.0224 10.6855C67.8818 10.6738 67.7705 10.6328 67.6884 10.5625C67.5947 10.4922 67.5185 10.4043 67.4599 10.2988C67.4013 10.1934 67.3603 10.082 67.3369 9.96484C67.3017 9.83594 67.2841 9.71289 67.2841 9.5957V9.22656C67.3193 9.0625 67.4189 8.88086 67.583 8.68164C67.7353 8.4707 67.8935 8.31836 68.0576 8.22461C68.2334 8.13086 68.3916 8.13086 68.5322 8.22461C68.6728 8.31836 68.749 8.57617 68.7607 8.99805C68.8427 8.92773 68.9189 8.85742 68.9892 8.78711C69.0595 8.70508 69.1474 8.6875 69.2529 8.73438Z"/>
</mask>
<path d="M13.5185 8.1543C13.3545 8.43555 13.2256 8.66406 13.1318 8.83984C13.0498 9.00391 12.9619 9.14453 12.8681 9.26172C12.7861 9.36719 12.6865 9.4668 12.5693 9.56055C12.4638 9.64258 12.3115 9.74805 12.1123 9.87695C11.9834 9.99414 11.8545 10.0938 11.7256 10.1758C11.6201 10.2578 11.5146 10.3281 11.4092 10.3867C11.3154 10.4453 11.2392 10.4746 11.1806 10.4746C11.1572 10.4746 11.1338 10.4688 11.1103 10.457C11.0869 10.457 11.0634 10.457 11.04 10.457C10.9697 10.457 10.8994 10.457 10.8291 10.457C10.7705 10.4688 10.7177 10.4277 10.6709 10.334C10.6357 10.3691 10.6064 10.4102 10.583 10.457C10.5595 10.5039 10.5361 10.5449 10.5127 10.5801C10.4892 10.627 10.4541 10.6621 10.4072 10.6855C10.372 10.709 10.3193 10.709 10.249 10.6855L10.1611 10.5801L9.89743 10.8086C9.56931 10.6445 9.2529 10.5039 8.94821 10.3867C8.65525 10.2812 8.39157 10.1523 8.1572 10C7.92282 9.84766 7.7236 9.6543 7.55954 9.41992C7.39548 9.17383 7.27829 8.83984 7.20798 8.41797C7.14939 8.34766 7.08493 8.28906 7.01462 8.24219C6.94431 8.18359 6.86228 8.16602 6.76853 8.18945C6.65134 8.38867 6.51071 8.55859 6.34665 8.69922C6.18259 8.83984 6.01853 8.99219 5.85446 9.15625C5.79587 9.21484 5.749 9.2793 5.71384 9.34961C5.67868 9.41992 5.63181 9.48438 5.57321 9.54297C5.47946 9.64844 5.36814 9.72461 5.23923 9.77148C5.11032 9.80664 4.98142 9.8418 4.85251 9.87695C4.7236 9.91211 4.60056 9.9707 4.48337 10.0527C4.3779 10.1348 4.30173 10.2754 4.25485 10.4746C4.11423 10.3926 3.9736 10.3691 3.83298 10.4043C3.72751 10.4277 3.61618 10.4512 3.499 10.4746C3.38181 10.5098 3.26462 10.5273 3.14743 10.5273C3.04196 10.5391 2.9365 10.5273 2.83103 10.4922C2.72556 10.457 2.63181 10.3809 2.54978 10.2637C2.38571 10.334 2.23337 10.3281 2.09275 10.2461C1.95212 10.1758 1.81735 10.0762 1.68845 9.94727C1.57126 9.80664 1.45407 9.66016 1.33689 9.50781C1.2197 9.35547 1.10837 9.24414 1.0029 9.17383C0.932589 8.98633 0.938448 8.82812 1.02048 8.69922C1.09079 8.55859 1.17282 8.42969 1.26657 8.3125C1.3486 8.18359 1.4072 8.06055 1.44235 7.94336C1.47751 7.81445 1.42478 7.66211 1.28415 7.48633C1.40134 7.31055 1.50681 7.12891 1.60056 6.94141C1.69431 6.74219 1.78806 6.54883 1.88181 6.36133C1.98728 6.16211 2.09275 5.97461 2.19821 5.79883C2.3154 5.61133 2.45603 5.45312 2.62009 5.32422C2.54978 5.24219 2.51462 5.16602 2.51462 5.0957C2.51462 5.01367 2.5322 4.9375 2.56735 4.86719C2.60251 4.78516 2.64353 4.70898 2.6904 4.63867C2.73728 4.55664 2.77243 4.48047 2.79587 4.41016L3.30564 4.16406L3.18259 3.74219C3.3115 3.76562 3.40525 3.75977 3.46384 3.72461C3.53415 3.68945 3.58103 3.63672 3.60446 3.56641C3.63962 3.49609 3.66306 3.41992 3.67478 3.33789C3.69821 3.24414 3.72751 3.16211 3.76267 3.0918C3.82126 2.98633 3.90915 2.91016 4.02634 2.86328C4.27243 2.67578 4.51267 2.47656 4.74704 2.26562C4.99314 2.05469 5.23337 1.84961 5.46775 1.65039C5.71384 1.45117 5.96579 1.26367 6.2236 1.08789C6.48142 0.900391 6.76267 0.742188 7.06735 0.613281C7.27829 0.648438 7.44235 0.712891 7.55954 0.806641C7.68845 0.900391 7.7822 1.01172 7.84079 1.14062C7.9111 1.26953 7.96384 1.41602 7.999 1.58008C8.03415 1.73242 8.06931 1.88477 8.10446 2.03711C8.16306 2.23633 8.23337 2.40625 8.3154 2.54688C8.39743 2.6875 8.53806 2.80469 8.73728 2.89844C8.57321 3.17969 8.50876 3.46094 8.54392 3.74219C8.57907 4.01172 8.61423 4.29883 8.64939 4.60352C8.68454 4.88477 8.67868 5.16016 8.63181 5.42969C8.59665 5.69922 8.42673 5.93945 8.12204 6.15039C8.0986 6.23242 8.09275 6.32031 8.10446 6.41406C8.11618 6.50781 8.12204 6.60156 8.12204 6.69531C8.12204 6.78906 8.10446 6.87695 8.06931 6.95898C8.03415 7.04102 7.9697 7.10547 7.87595 7.15234C7.98142 7.28125 8.03415 7.41016 8.03415 7.53906C8.04587 7.66797 8.05173 7.79102 8.05173 7.9082C8.06345 8.02539 8.09275 8.13086 8.13962 8.22461C8.19821 8.31836 8.32712 8.38867 8.52634 8.43555C8.5615 8.58789 8.59079 8.70508 8.61423 8.78711C8.64939 8.85742 8.68454 8.91602 8.7197 8.96289C8.76657 9.00977 8.82517 9.05664 8.89548 9.10352C8.96579 9.13867 9.05954 9.19727 9.17673 9.2793C9.27048 9.30273 9.37595 9.30273 9.49314 9.2793C9.61032 9.25586 9.70407 9.29102 9.77439 9.38477C9.83298 9.32617 9.90329 9.29688 9.98532 9.29688C10.0674 9.28516 10.1435 9.28516 10.2138 9.29688L10.4424 9.68359C10.5713 9.58984 10.7177 9.50781 10.8818 9.4375C11.0459 9.36719 11.2041 9.30859 11.3564 9.26172C11.5322 9.21484 11.708 9.17383 11.8838 9.13867L13.5185 8.1543ZM6.76853 2.14258C6.66306 2.23633 6.53415 2.33008 6.38181 2.42383C6.22946 2.51758 6.07712 2.61719 5.92478 2.72266C5.78415 2.82812 5.6611 2.94531 5.55564 3.07422C5.45017 3.19141 5.38571 3.33203 5.36228 3.49609C5.09275 3.54297 4.90525 3.6543 4.79978 3.83008C4.69431 4.00586 4.60642 4.19922 4.5361 4.41016C4.46579 4.62109 4.38962 4.83203 4.30759 5.04297C4.22556 5.24219 4.07907 5.40039 3.86814 5.51758C3.79782 5.56445 3.73337 5.58789 3.67478 5.58789C3.6865 5.58789 3.65134 5.61133 3.56931 5.6582C3.4404 5.75195 3.32907 5.86914 3.23532 6.00977C3.14157 6.15039 3.05954 6.30273 2.98923 6.4668C2.93064 6.63086 2.87204 6.80078 2.81345 6.97656C2.76657 7.14062 2.7197 7.29297 2.67282 7.43359C2.50876 7.45703 2.38571 7.49219 2.30368 7.53906C2.22165 7.58594 2.16892 7.63867 2.14548 7.69727C2.13376 7.74414 2.13962 7.80273 2.16306 7.87305C2.1865 7.94336 2.22165 8.01953 2.26853 8.10156C2.3154 8.17188 2.36228 8.25391 2.40915 8.34766C2.46775 8.44141 2.51462 8.53516 2.54978 8.62891C2.58493 8.72266 2.60251 8.81641 2.60251 8.91016C2.61423 9.00391 2.59079 9.0918 2.5322 9.17383C2.69626 9.30273 2.85446 9.33203 3.00681 9.26172C3.15915 9.17969 3.29978 9.0918 3.42868 8.99805C3.47556 8.96289 3.52243 8.92773 3.56931 8.89258C3.6279 8.8457 3.6865 8.81055 3.74509 8.78711C4.01462 8.8457 4.26071 8.82812 4.48337 8.73438C4.70603 8.64062 4.9111 8.51172 5.0986 8.34766C5.2861 8.18359 5.46775 8.00781 5.64353 7.82031C5.81931 7.63281 5.99509 7.46875 6.17087 7.32812L6.03025 7.1875C6.24118 7.12891 6.38767 7.05273 6.4697 6.95898C6.56345 6.85352 6.62204 6.73633 6.64548 6.60742C6.66892 6.47852 6.66892 6.34375 6.64548 6.20312C6.62204 6.05078 6.60446 5.89258 6.59275 5.72852C6.58103 5.63477 6.57517 5.54688 6.57517 5.46484C6.58689 5.37109 6.61032 5.27734 6.64548 5.18359C6.55173 4.91406 6.53415 4.65625 6.59275 4.41016C6.66306 4.16406 6.75095 3.92969 6.85642 3.70703C6.9736 3.47266 7.08493 3.23828 7.1904 3.00391C7.29587 2.76953 7.3486 2.52344 7.3486 2.26562L6.76853 2.14258Z" fill="black"/>
<path d="M22.4482 9.36719C22.4599 9.50781 22.4365 9.61328 22.3779 9.68359C22.3193 9.75391 22.2373 9.80664 22.1318 9.8418C22.0381 9.87695 21.9326 9.90625 21.8154 9.92969C21.6982 9.94141 21.5986 9.9707 21.5166 10.0176C21.1767 9.98242 20.8486 9.93555 20.5322 9.87695C20.2158 9.80664 19.9228 9.70703 19.6533 9.57812C19.3838 9.4375 19.1377 9.25586 18.915 9.0332C18.7041 8.81055 18.5224 8.5293 18.3701 8.18945C18.5224 7.94336 18.5752 7.67383 18.5283 7.38086C18.4814 7.07617 18.4345 6.7832 18.3877 6.50195C18.3525 6.2207 18.3584 5.96289 18.4052 5.72852C18.4638 5.49414 18.6689 5.30664 19.0205 5.16602C18.997 5.03711 18.997 4.89648 19.0205 4.74414C19.0556 4.5918 19.0146 4.46289 18.8974 4.35742C18.4873 4.49805 18.1299 4.69727 17.8252 4.95508C17.5205 5.21289 17.2275 5.49414 16.9463 5.79883C16.6767 6.10352 16.4013 6.41406 16.1201 6.73047C15.8506 7.03516 15.5517 7.30469 15.2236 7.53906C15.0713 7.55078 14.9072 7.54492 14.7314 7.52148C14.5674 7.48633 14.4267 7.5332 14.3095 7.66211C14.3213 7.74414 14.3506 7.81445 14.3974 7.87305C14.4443 7.93164 14.4795 7.99023 14.5029 8.04883C14.5381 8.10742 14.5556 8.17188 14.5556 8.24219C14.5556 8.30078 14.5146 8.37109 14.4326 8.45312C14.3154 8.57031 14.1865 8.66992 14.0459 8.75195C13.917 8.82227 13.7881 8.9043 13.6592 8.99805C13.542 9.08008 13.4424 9.17969 13.3603 9.29688C13.2783 9.41406 13.2373 9.57227 13.2373 9.77148C13.167 9.73633 13.1025 9.73047 13.0439 9.75391C12.9853 9.76562 12.9326 9.79492 12.8857 9.8418C12.8271 9.88867 12.7744 9.94141 12.7275 10C12.6806 10.0586 12.6338 10.1055 12.5869 10.1406C12.5634 10.1992 12.5693 10.2461 12.6045 10.2812C12.6396 10.3281 12.6806 10.375 12.7275 10.4219C12.6806 10.5508 12.622 10.627 12.5517 10.6504C12.4697 10.6855 12.3877 10.6914 12.3056 10.668C12.2119 10.6445 12.124 10.6035 12.042 10.5449C11.9482 10.498 11.8662 10.457 11.7959 10.4219C11.7607 10.2695 11.7373 10.0938 11.7256 9.89453C11.7138 9.69531 11.7197 9.50195 11.7431 9.31445C11.7666 9.11523 11.8134 8.92773 11.8838 8.75195C11.9541 8.57617 12.0595 8.42969 12.2002 8.3125C12.247 8.27734 12.2763 8.25977 12.2881 8.25977C12.2998 8.24805 12.3056 8.24219 12.3056 8.24219C12.3056 8.24219 12.3115 8.24219 12.3232 8.24219C12.3349 8.23047 12.3584 8.20703 12.3935 8.17188C12.4873 8.06641 12.5517 7.95508 12.5869 7.83789C12.622 7.70898 12.6513 7.58008 12.6748 7.45117C12.6982 7.32227 12.7334 7.19922 12.7802 7.08203C12.8154 6.95312 12.8857 6.8418 12.9912 6.74805C12.9443 6.56055 12.9443 6.39648 12.9912 6.25586C13.0498 6.10352 13.1201 5.96289 13.2021 5.83398C13.2959 5.69336 13.3838 5.55859 13.4658 5.42969C13.5595 5.28906 13.6181 5.13672 13.6416 4.97266C13.6533 4.91406 13.6533 4.86133 13.6416 4.81445C13.6416 4.75586 13.6416 4.69727 13.6416 4.63867C13.6181 4.45117 13.6357 4.31055 13.6943 4.2168C13.7646 4.11133 13.8467 4.0293 13.9404 3.9707C14.0459 3.90039 14.1513 3.83008 14.2568 3.75977C14.374 3.68945 14.4736 3.58398 14.5556 3.44336C14.8955 3.60742 15.0947 3.83008 15.1533 4.11133C15.2236 4.38086 15.247 4.68555 15.2236 5.02539C15.0244 5.1543 14.872 5.33594 14.7666 5.57031C14.6611 5.79297 14.5908 6.00977 14.5556 6.2207C14.5791 6.29102 14.6084 6.33203 14.6435 6.34375C14.6904 6.34375 14.7373 6.33789 14.7842 6.32617C14.8427 6.30273 14.8955 6.2793 14.9424 6.25586C14.9892 6.23242 15.0361 6.2207 15.083 6.2207C15.5049 5.92773 15.9209 5.59961 16.331 5.23633C16.7529 4.87305 17.081 4.45703 17.3154 3.98828C17.6552 3.82422 17.9775 3.63672 18.2822 3.42578C18.5869 3.20312 18.9209 3.03906 19.2842 2.93359L19.6884 2.5293C19.747 2.62305 19.8174 2.64648 19.8994 2.59961C19.9814 2.54102 20.0634 2.47656 20.1455 2.40625C20.2275 2.33594 20.3037 2.29492 20.374 2.2832C20.456 2.27148 20.5322 2.35352 20.6025 2.5293C20.7197 2.83398 20.749 3.13281 20.6904 3.42578C20.6318 3.70703 20.5381 3.98828 20.4092 4.26953C20.292 4.53906 20.1689 4.81445 20.04 5.0957C19.9111 5.37695 19.8349 5.66406 19.8115 5.95703C19.8115 6.02734 19.8115 6.10352 19.8115 6.18555C19.8115 6.25586 19.8056 6.33203 19.7939 6.41406C19.7705 6.66016 19.7353 6.92969 19.6884 7.22266C19.6533 7.50391 19.6709 7.76172 19.7412 7.99609C19.7998 8.20703 19.9228 8.39453 20.1103 8.55859C20.2978 8.72266 20.4619 8.88672 20.6025 9.05078C20.6845 9.03906 20.7666 9.04492 20.8486 9.06836C20.9306 9.0918 21.0068 9.11523 21.0771 9.13867C21.1592 9.16211 21.2353 9.17383 21.3056 9.17383C21.3759 9.16211 21.4463 9.12109 21.5166 9.05078C21.5986 9.01562 21.6748 9.02148 21.7451 9.06836C21.8271 9.10352 21.9033 9.15039 21.9736 9.20898C22.0439 9.26758 22.1142 9.32031 22.1845 9.36719C22.2666 9.40234 22.3545 9.40234 22.4482 9.36719Z" fill="black"/>
<path d="M32.9775 9.36719C32.9892 9.50781 32.9658 9.61328 32.9072 9.68359C32.8486 9.75391 32.7666 9.80664 32.6611 9.8418C32.5674 9.87695 32.4619 9.90625 32.3447 9.92969C32.2275 9.94141 32.1279 9.9707 32.0459 10.0176C31.706 9.98242 31.3779 9.93555 31.0615 9.87695C30.7451 9.80664 30.4521 9.70703 30.1826 9.57812C29.9131 9.4375 29.667 9.25586 29.4443 9.0332C29.2334 8.81055 29.0517 8.5293 28.8994 8.18945C29.0517 7.94336 29.1045 7.67383 29.0576 7.38086C29.0107 7.07617 28.9638 6.7832 28.917 6.50195C28.8818 6.2207 28.8877 5.96289 28.9345 5.72852C28.9931 5.49414 29.1982 5.30664 29.5498 5.16602C29.5263 5.03711 29.5263 4.89648 29.5498 4.74414C29.5849 4.5918 29.5439 4.46289 29.4267 4.35742C29.0166 4.49805 28.6592 4.69727 28.3545 4.95508C28.0498 5.21289 27.7568 5.49414 27.4756 5.79883C27.206 6.10352 26.9306 6.41406 26.6494 6.73047C26.3799 7.03516 26.081 7.30469 25.7529 7.53906C25.6006 7.55078 25.4365 7.54492 25.2607 7.52148C25.0967 7.48633 24.956 7.5332 24.8388 7.66211C24.8506 7.74414 24.8799 7.81445 24.9267 7.87305C24.9736 7.93164 25.0088 7.99023 25.0322 8.04883C25.0674 8.10742 25.0849 8.17188 25.0849 8.24219C25.0849 8.30078 25.0439 8.37109 24.9619 8.45312C24.8447 8.57031 24.7158 8.66992 24.5752 8.75195C24.4463 8.82227 24.3174 8.9043 24.1884 8.99805C24.0713 9.08008 23.9717 9.17969 23.8896 9.29688C23.8076 9.41406 23.7666 9.57227 23.7666 9.77148C23.6963 9.73633 23.6318 9.73047 23.5732 9.75391C23.5146 9.76562 23.4619 9.79492 23.415 9.8418C23.3564 9.88867 23.3037 9.94141 23.2568 10C23.2099 10.0586 23.1631 10.1055 23.1162 10.1406C23.0927 10.1992 23.0986 10.2461 23.1338 10.2812C23.1689 10.3281 23.2099 10.375 23.2568 10.4219C23.2099 10.5508 23.1513 10.627 23.081 10.6504C22.999 10.6855 22.917 10.6914 22.8349 10.668C22.7412 10.6445 22.6533 10.6035 22.5713 10.5449C22.4775 10.498 22.3955 10.457 22.3252 10.4219C22.29 10.2695 22.2666 10.0938 22.2549 9.89453C22.2431 9.69531 22.249 9.50195 22.2724 9.31445C22.2959 9.11523 22.3427 8.92773 22.4131 8.75195C22.4834 8.57617 22.5888 8.42969 22.7295 8.3125C22.7763 8.27734 22.8056 8.25977 22.8174 8.25977C22.8291 8.24805 22.8349 8.24219 22.8349 8.24219C22.8349 8.24219 22.8408 8.24219 22.8525 8.24219C22.8642 8.23047 22.8877 8.20703 22.9228 8.17188C23.0166 8.06641 23.081 7.95508 23.1162 7.83789C23.1513 7.70898 23.1806 7.58008 23.2041 7.45117C23.2275 7.32227 23.2627 7.19922 23.3095 7.08203C23.3447 6.95312 23.415 6.8418 23.5205 6.74805C23.4736 6.56055 23.4736 6.39648 23.5205 6.25586C23.5791 6.10352 23.6494 5.96289 23.7314 5.83398C23.8252 5.69336 23.9131 5.55859 23.9951 5.42969C24.0888 5.28906 24.1474 5.13672 24.1709 4.97266C24.1826 4.91406 24.1826 4.86133 24.1709 4.81445C24.1709 4.75586 24.1709 4.69727 24.1709 4.63867C24.1474 4.45117 24.165 4.31055 24.2236 4.2168C24.2939 4.11133 24.3759 4.0293 24.4697 3.9707C24.5752 3.90039 24.6806 3.83008 24.7861 3.75977C24.9033 3.68945 25.0029 3.58398 25.0849 3.44336C25.4248 3.60742 25.624 3.83008 25.6826 4.11133C25.7529 4.38086 25.7763 4.68555 25.7529 5.02539C25.5537 5.1543 25.4013 5.33594 25.2959 5.57031C25.1904 5.79297 25.1201 6.00977 25.0849 6.2207C25.1084 6.29102 25.1377 6.33203 25.1728 6.34375C25.2197 6.34375 25.2666 6.33789 25.3134 6.32617C25.372 6.30273 25.4248 6.2793 25.4717 6.25586C25.5185 6.23242 25.5654 6.2207 25.6123 6.2207C26.0342 5.92773 26.4502 5.59961 26.8603 5.23633C27.2822 4.87305 27.6103 4.45703 27.8447 3.98828C28.1845 3.82422 28.5068 3.63672 28.8115 3.42578C29.1162 3.20312 29.4502 3.03906 29.8134 2.93359L30.2177 2.5293C30.2763 2.62305 30.3467 2.64648 30.4287 2.59961C30.5107 2.54102 30.5927 2.47656 30.6748 2.40625C30.7568 2.33594 30.833 2.29492 30.9033 2.2832C30.9853 2.27148 31.0615 2.35352 31.1318 2.5293C31.249 2.83398 31.2783 3.13281 31.2197 3.42578C31.1611 3.70703 31.0674 3.98828 30.9384 4.26953C30.8213 4.53906 30.6982 4.81445 30.5693 5.0957C30.4404 5.37695 30.3642 5.66406 30.3408 5.95703C30.3408 6.02734 30.3408 6.10352 30.3408 6.18555C30.3408 6.25586 30.3349 6.33203 30.3232 6.41406C30.2998 6.66016 30.2646 6.92969 30.2177 7.22266C30.1826 7.50391 30.2002 7.76172 30.2705 7.99609C30.3291 8.20703 30.4521 8.39453 30.6396 8.55859C30.8271 8.72266 30.9912 8.88672 31.1318 9.05078C31.2138 9.03906 31.2959 9.04492 31.3779 9.06836C31.4599 9.0918 31.5361 9.11523 31.6064 9.13867C31.6884 9.16211 31.7646 9.17383 31.8349 9.17383C31.9052 9.16211 31.9756 9.12109 32.0459 9.05078C32.1279 9.01562 32.2041 9.02148 32.2744 9.06836C32.3564 9.10352 32.4326 9.15039 32.5029 9.20898C32.5732 9.26758 32.6435 9.32031 32.7138 9.36719C32.7959 9.40234 32.8838 9.40234 32.9775 9.36719Z" fill="black"/>
<path d="M46.249 8.1543C46.0849 8.43555 45.956 8.66406 45.8623 8.83984C45.7802 9.00391 45.6924 9.14453 45.5986 9.26172C45.5166 9.36719 45.417 9.4668 45.2998 9.56055C45.1943 9.64258 45.042 9.74805 44.8427 9.87695C44.7138 9.99414 44.5849 10.0938 44.456 10.1758C44.3506 10.2578 44.2451 10.3281 44.1396 10.3867C44.0459 10.4453 43.9697 10.4746 43.9111 10.4746C43.8877 10.4746 43.8642 10.4688 43.8408 10.457C43.8174 10.457 43.7939 10.457 43.7705 10.457C43.7002 10.457 43.6299 10.457 43.5595 10.457C43.5009 10.4688 43.4482 10.4277 43.4013 10.334C43.3662 10.3691 43.3369 10.4102 43.3134 10.457C43.29 10.5039 43.2666 10.5449 43.2431 10.5801C43.2197 10.627 43.1845 10.6621 43.1377 10.6855C43.1025 10.709 43.0498 10.709 42.9795 10.6855L42.8916 10.5801L42.6279 10.8086C42.2998 10.6445 41.9834 10.5039 41.6787 10.3867C41.3857 10.2812 41.122 10.1523 40.8877 10C40.6533 9.84766 40.4541 9.6543 40.29 9.41992C40.1259 9.17383 40.0088 8.83984 39.9384 8.41797C39.8799 8.34766 39.8154 8.28906 39.7451 8.24219C39.6748 8.18359 39.5927 8.16602 39.499 8.18945C39.3818 8.38867 39.2412 8.55859 39.0771 8.69922C38.9131 8.83984 38.749 8.99219 38.5849 9.15625C38.5263 9.21484 38.4795 9.2793 38.4443 9.34961C38.4092 9.41992 38.3623 9.48438 38.3037 9.54297C38.2099 9.64844 38.0986 9.72461 37.9697 9.77148C37.8408 9.80664 37.7119 9.8418 37.583 9.87695C37.4541 9.91211 37.331 9.9707 37.2138 10.0527C37.1084 10.1348 37.0322 10.2754 36.9853 10.4746C36.8447 10.3926 36.7041 10.3691 36.5634 10.4043C36.458 10.4277 36.3467 10.4512 36.2295 10.4746C36.1123 10.5098 35.9951 10.5273 35.8779 10.5273C35.7724 10.5391 35.667 10.5273 35.5615 10.4922C35.456 10.457 35.3623 10.3809 35.2802 10.2637C35.1162 10.334 34.9638 10.3281 34.8232 10.2461C34.6826 10.1758 34.5478 10.0762 34.4189 9.94727C34.3017 9.80664 34.1845 9.66016 34.0674 9.50781C33.9502 9.35547 33.8388 9.24414 33.7334 9.17383C33.6631 8.98633 33.6689 8.82812 33.7509 8.69922C33.8213 8.55859 33.9033 8.42969 33.997 8.3125C34.0791 8.18359 34.1377 8.06055 34.1728 7.94336C34.208 7.81445 34.1552 7.66211 34.0146 7.48633C34.1318 7.31055 34.2373 7.12891 34.331 6.94141C34.4248 6.74219 34.5185 6.54883 34.6123 6.36133C34.7177 6.16211 34.8232 5.97461 34.9287 5.79883C35.0459 5.61133 35.1865 5.45312 35.3506 5.32422C35.2802 5.24219 35.2451 5.16602 35.2451 5.0957C35.2451 5.01367 35.2627 4.9375 35.2978 4.86719C35.333 4.78516 35.374 4.70898 35.4209 4.63867C35.4677 4.55664 35.5029 4.48047 35.5263 4.41016L36.0361 4.16406L35.9131 3.74219C36.042 3.76562 36.1357 3.75977 36.1943 3.72461C36.2646 3.68945 36.3115 3.63672 36.3349 3.56641C36.3701 3.49609 36.3935 3.41992 36.4052 3.33789C36.4287 3.24414 36.458 3.16211 36.4931 3.0918C36.5517 2.98633 36.6396 2.91016 36.7568 2.86328C37.0029 2.67578 37.2431 2.47656 37.4775 2.26562C37.7236 2.05469 37.9638 1.84961 38.1982 1.65039C38.4443 1.45117 38.6963 1.26367 38.9541 1.08789C39.2119 0.900391 39.4931 0.742188 39.7978 0.613281C40.0088 0.648438 40.1728 0.712891 40.29 0.806641C40.4189 0.900391 40.5127 1.01172 40.5713 1.14062C40.6416 1.26953 40.6943 1.41602 40.7295 1.58008C40.7646 1.73242 40.7998 1.88477 40.8349 2.03711C40.8935 2.23633 40.9638 2.40625 41.0459 2.54688C41.1279 2.6875 41.2685 2.80469 41.4677 2.89844C41.3037 3.17969 41.2392 3.46094 41.2744 3.74219C41.3095 4.01172 41.3447 4.29883 41.3799 4.60352C41.415 4.88477 41.4092 5.16016 41.3623 5.42969C41.3271 5.69922 41.1572 5.93945 40.8525 6.15039C40.8291 6.23242 40.8232 6.32031 40.8349 6.41406C40.8467 6.50781 40.8525 6.60156 40.8525 6.69531C40.8525 6.78906 40.8349 6.87695 40.7998 6.95898C40.7646 7.04102 40.7002 7.10547 40.6064 7.15234C40.7119 7.28125 40.7646 7.41016 40.7646 7.53906C40.7763 7.66797 40.7822 7.79102 40.7822 7.9082C40.7939 8.02539 40.8232 8.13086 40.8701 8.22461C40.9287 8.31836 41.0576 8.38867 41.2568 8.43555C41.292 8.58789 41.3213 8.70508 41.3447 8.78711C41.3799 8.85742 41.415 8.91602 41.4502 8.96289C41.497 9.00977 41.5556 9.05664 41.6259 9.10352C41.6963 9.13867 41.79 9.19727 41.9072 9.2793C42.0009 9.30273 42.1064 9.30273 42.2236 9.2793C42.3408 9.25586 42.4345 9.29102 42.5049 9.38477C42.5634 9.32617 42.6338 9.29688 42.7158 9.29688C42.7978 9.28516 42.874 9.28516 42.9443 9.29688L43.1728 9.68359C43.3017 9.58984 43.4482 9.50781 43.6123 9.4375C43.7763 9.36719 43.9345 9.30859 44.0869 9.26172C44.2627 9.21484 44.4384 9.17383 44.6142 9.13867L46.249 8.1543ZM39.499 2.14258C39.3935 2.23633 39.2646 2.33008 39.1123 2.42383C38.9599 2.51758 38.8076 2.61719 38.6552 2.72266C38.5146 2.82812 38.3916 2.94531 38.2861 3.07422C38.1806 3.19141 38.1162 3.33203 38.0927 3.49609C37.8232 3.54297 37.6357 3.6543 37.5302 3.83008C37.4248 4.00586 37.3369 4.19922 37.2666 4.41016C37.1963 4.62109 37.1201 4.83203 37.0381 5.04297C36.956 5.24219 36.8095 5.40039 36.5986 5.51758C36.5283 5.56445 36.4638 5.58789 36.4052 5.58789C36.417 5.58789 36.3818 5.61133 36.2998 5.6582C36.1709 5.75195 36.0595 5.86914 35.9658 6.00977C35.872 6.15039 35.79 6.30273 35.7197 6.4668C35.6611 6.63086 35.6025 6.80078 35.5439 6.97656C35.497 7.14062 35.4502 7.29297 35.4033 7.43359C35.2392 7.45703 35.1162 7.49219 35.0342 7.53906C34.9521 7.58594 34.8994 7.63867 34.8759 7.69727C34.8642 7.74414 34.8701 7.80273 34.8935 7.87305C34.917 7.94336 34.9521 8.01953 34.999 8.10156C35.0459 8.17188 35.0927 8.25391 35.1396 8.34766C35.1982 8.44141 35.2451 8.53516 35.2802 8.62891C35.3154 8.72266 35.333 8.81641 35.333 8.91016C35.3447 9.00391 35.3213 9.0918 35.2627 9.17383C35.4267 9.30273 35.5849 9.33203 35.7373 9.26172C35.8896 9.17969 36.0302 9.0918 36.1592 8.99805C36.206 8.96289 36.2529 8.92773 36.2998 8.89258C36.3584 8.8457 36.417 8.81055 36.4756 8.78711C36.7451 8.8457 36.9912 8.82812 37.2138 8.73438C37.4365 8.64062 37.6416 8.51172 37.8291 8.34766C38.0166 8.18359 38.1982 8.00781 38.374 7.82031C38.5498 7.63281 38.7256 7.46875 38.9013 7.32812L38.7607 7.1875C38.9717 7.12891 39.1181 7.05273 39.2002 6.95898C39.2939 6.85352 39.3525 6.73633 39.3759 6.60742C39.3994 6.47852 39.3994 6.34375 39.3759 6.20312C39.3525 6.05078 39.3349 5.89258 39.3232 5.72852C39.3115 5.63477 39.3056 5.54688 39.3056 5.46484C39.3174 5.37109 39.3408 5.27734 39.3759 5.18359C39.2822 4.91406 39.2646 4.65625 39.3232 4.41016C39.3935 4.16406 39.4814 3.92969 39.5869 3.70703C39.7041 3.47266 39.8154 3.23828 39.9209 3.00391C40.0263 2.76953 40.0791 2.52344 40.0791 2.26562L39.499 2.14258Z" fill="black"/>
<path d="M64.5127 6.51953C64.2431 6.64844 64.0615 6.80664 63.9677 6.99414C63.874 7.18164 63.7978 7.375 63.7392 7.57422C63.6924 7.77344 63.6279 7.9668 63.5459 8.1543C63.4756 8.33008 63.3174 8.47656 63.0713 8.59375C63.0127 8.80469 62.8955 8.95117 62.7197 9.0332C62.5556 9.11523 62.3799 9.19141 62.1924 9.26172C62.0049 9.32031 61.8349 9.40234 61.6826 9.50781C61.542 9.61328 61.4717 9.79492 61.4717 10.0527C61.2373 10.1816 60.9795 10.2988 60.6982 10.4043C60.4287 10.5098 60.1416 10.5859 59.8369 10.6328C59.5439 10.6914 59.2509 10.7148 58.958 10.7031C58.665 10.6914 58.3896 10.6328 58.1318 10.5273C57.956 10.4453 57.7861 10.3398 57.622 10.2109C57.5634 10.1641 57.5049 10.123 57.4463 10.0879C57.3994 10.0645 57.3467 10.0234 57.2881 9.96484C57.1474 9.82422 57.0302 9.66016 56.9365 9.47266C56.8427 9.28516 56.7666 9.08594 56.708 8.875C56.6494 8.66406 56.6025 8.45312 56.5674 8.24219C56.5322 8.03125 56.5029 7.83203 56.4795 7.64453L57.1299 5.88672C56.79 5.61719 56.5146 5.30664 56.3037 4.95508C56.0927 4.5918 55.8349 4.25781 55.5302 3.95312C55.4717 4.03516 55.3955 4.10547 55.3017 4.16406C55.208 4.22266 55.1728 4.31641 55.1963 4.44531L55.372 4.60352C54.9853 5.02539 54.5927 5.50586 54.1943 6.04492C53.8076 6.57227 53.5029 7.10547 53.2802 7.64453C53.0224 7.63281 52.8408 7.69727 52.7353 7.83789C52.6299 7.9668 52.542 8.11914 52.4717 8.29492C52.4013 8.45898 52.3134 8.61133 52.208 8.75195C52.1025 8.89258 51.9267 8.95117 51.6806 8.92773C51.622 9.05664 51.5634 9.19727 51.5049 9.34961C51.4463 9.49023 51.3759 9.625 51.2939 9.75391C51.2119 9.88281 51.1123 9.98828 50.9951 10.0703C50.8779 10.1641 50.7314 10.2109 50.5556 10.2109C50.4619 10.1172 50.4092 10.0176 50.3974 9.91211C50.3857 9.80664 50.3974 9.70117 50.4326 9.5957C50.4677 9.47852 50.5146 9.36719 50.5732 9.26172C50.6318 9.14453 50.6728 9.0332 50.6963 8.92773C50.79 8.58789 50.9599 8.2832 51.206 8.01367C51.4521 7.73242 51.6982 7.45703 51.9443 7.1875C52.1904 6.90625 52.4013 6.61328 52.5771 6.30859C52.7529 6.00391 52.8232 5.64648 52.7881 5.23633C52.9404 5.22461 53.0927 5.19531 53.2451 5.14844C53.4092 5.08984 53.5556 5.01953 53.6845 4.9375C53.8252 4.84375 53.9306 4.73242 54.0009 4.60352C54.083 4.46289 54.1123 4.29883 54.0888 4.11133C53.9951 4.06445 53.9424 4 53.9306 3.91797C53.9189 3.82422 53.9189 3.73047 53.9306 3.63672C54.1884 3.55469 54.3935 3.41406 54.5459 3.21484C54.7099 3.00391 54.8564 2.78125 54.9853 2.54688C55.1142 2.3125 55.2373 2.07812 55.3545 1.84375C55.4834 1.59766 55.6474 1.38672 55.8467 1.21094C56.0107 1.30469 56.1748 1.38672 56.3388 1.45703C56.5029 1.51562 56.6611 1.59766 56.8134 1.70312C56.708 1.84375 56.6435 1.97852 56.6201 2.10742C56.5967 2.23633 56.5849 2.37109 56.5849 2.51172C56.5849 2.64062 56.5849 2.76953 56.5849 2.89844C56.5849 3.02734 56.5498 3.16211 56.4795 3.30273C56.667 3.4668 56.8252 3.66016 56.9541 3.88281C57.083 4.10547 57.247 4.29297 57.4463 4.44531C57.5869 4.33984 57.7451 4.28711 57.9209 4.28711C58.0967 4.27539 58.2724 4.27539 58.4482 4.28711C58.6357 4.28711 58.8115 4.27539 58.9756 4.25195C59.1396 4.2168 59.2744 4.11719 59.3799 3.95312C59.4267 4 59.497 4.02344 59.5908 4.02344C59.6845 4.02344 59.7783 4.02344 59.872 4.02344C59.9658 4.02344 60.0478 4.04102 60.1181 4.07617C60.1884 4.09961 60.2295 4.15234 60.2412 4.23438C60.2529 4.32812 60.247 4.39258 60.2236 4.42773C60.2119 4.46289 60.1943 4.52148 60.1709 4.60352C60.1474 4.69727 60.1416 4.74414 60.1533 4.74414C60.165 4.74414 60.1533 4.78516 60.1181 4.86719C60.0595 5.01953 59.9599 5.14844 59.8193 5.25391C59.6904 5.35938 59.5556 5.46484 59.415 5.57031C59.2861 5.66406 59.1631 5.77539 59.0459 5.9043C58.9404 6.02148 58.8877 6.17383 58.8877 6.36133C58.6299 6.45508 58.4482 6.5957 58.3427 6.7832C58.2373 6.95898 58.167 7.16406 58.1318 7.39844C58.0967 7.62109 58.0732 7.85547 58.0615 8.10156C58.0498 8.33594 58.0088 8.55273 57.9384 8.75195L58.0967 8.92773L58.2373 8.75195C58.4013 8.98633 58.5947 9.13281 58.8174 9.19141C59.0517 9.25 59.292 9.26758 59.5381 9.24414C59.6552 9.06836 59.79 8.92773 59.9424 8.82227C60.1064 8.7168 60.2763 8.62891 60.4521 8.55859C60.6396 8.48828 60.8271 8.42383 61.0146 8.36523C61.2138 8.30664 61.4013 8.23633 61.5771 8.1543C61.7177 8.08398 61.8349 8.00781 61.9287 7.92578C62.0342 7.84375 62.1455 7.75 62.2627 7.64453C62.6142 7.31641 62.9599 6.99414 63.2998 6.67773C63.6513 6.36133 64.0029 6.03906 64.3545 5.71094C64.4248 5.71094 64.4717 5.74609 64.4951 5.81641C64.5185 5.88672 64.5302 5.96875 64.5302 6.0625C64.5302 6.14453 64.5244 6.23242 64.5127 6.32617C64.5127 6.4082 64.5127 6.47266 64.5127 6.51953Z" fill="black"/>
<path d="M69.2529 8.73438C69.2412 8.91016 69.2177 9.11523 69.1826 9.34961C69.1474 9.58398 69.083 9.80078 68.9892 10C68.8955 10.1992 68.7724 10.3691 68.6201 10.5098C68.4677 10.6504 68.2685 10.709 68.0224 10.6855C67.8818 10.6738 67.7705 10.6328 67.6884 10.5625C67.5947 10.4922 67.5185 10.4043 67.4599 10.2988C67.4013 10.1934 67.3603 10.082 67.3369 9.96484C67.3017 9.83594 67.2841 9.71289 67.2841 9.5957V9.22656C67.3193 9.0625 67.4189 8.88086 67.583 8.68164C67.7353 8.4707 67.8935 8.31836 68.0576 8.22461C68.2334 8.13086 68.3916 8.13086 68.5322 8.22461C68.6728 8.31836 68.749 8.57617 68.7607 8.99805C68.8427 8.92773 68.9189 8.85742 68.9892 8.78711C69.0595 8.70508 69.1474 8.6875 69.2529 8.73438Z" fill="black"/>
<path d="M13.5185 8.1543C13.3545 8.43555 13.2256 8.66406 13.1318 8.83984C13.0498 9.00391 12.9619 9.14453 12.8681 9.26172C12.7861 9.36719 12.6865 9.4668 12.5693 9.56055C12.4638 9.64258 12.3115 9.74805 12.1123 9.87695C11.9834 9.99414 11.8545 10.0938 11.7256 10.1758C11.6201 10.2578 11.5146 10.3281 11.4092 10.3867C11.3154 10.4453 11.2392 10.4746 11.1806 10.4746C11.1572 10.4746 11.1338 10.4688 11.1103 10.457C11.0869 10.457 11.0634 10.457 11.04 10.457C10.9697 10.457 10.8994 10.457 10.8291 10.457C10.7705 10.4688 10.7177 10.4277 10.6709 10.334C10.6357 10.3691 10.6064 10.4102 10.583 10.457C10.5595 10.5039 10.5361 10.5449 10.5127 10.5801C10.4892 10.627 10.4541 10.6621 10.4072 10.6855C10.372 10.709 10.3193 10.709 10.249 10.6855L10.1611 10.5801L9.89743 10.8086C9.56931 10.6445 9.2529 10.5039 8.94821 10.3867C8.65525 10.2812 8.39157 10.1523 8.1572 10C7.92282 9.84766 7.7236 9.6543 7.55954 9.41992C7.39548 9.17383 7.27829 8.83984 7.20798 8.41797C7.14939 8.34766 7.08493 8.28906 7.01462 8.24219C6.94431 8.18359 6.86228 8.16602 6.76853 8.18945C6.65134 8.38867 6.51071 8.55859 6.34665 8.69922C6.18259 8.83984 6.01853 8.99219 5.85446 9.15625C5.79587 9.21484 5.749 9.2793 5.71384 9.34961C5.67868 9.41992 5.63181 9.48438 5.57321 9.54297C5.47946 9.64844 5.36814 9.72461 5.23923 9.77148C5.11032 9.80664 4.98142 9.8418 4.85251 9.87695C4.7236 9.91211 4.60056 9.9707 4.48337 10.0527C4.3779 10.1348 4.30173 10.2754 4.25485 10.4746C4.11423 10.3926 3.9736 10.3691 3.83298 10.4043C3.72751 10.4277 3.61618 10.4512 3.499 10.4746C3.38181 10.5098 3.26462 10.5273 3.14743 10.5273C3.04196 10.5391 2.9365 10.5273 2.83103 10.4922C2.72556 10.457 2.63181 10.3809 2.54978 10.2637C2.38571 10.334 2.23337 10.3281 2.09275 10.2461C1.95212 10.1758 1.81735 10.0762 1.68845 9.94727C1.57126 9.80664 1.45407 9.66016 1.33689 9.50781C1.2197 9.35547 1.10837 9.24414 1.0029 9.17383C0.932589 8.98633 0.938448 8.82812 1.02048 8.69922C1.09079 8.55859 1.17282 8.42969 1.26657 8.3125C1.3486 8.18359 1.4072 8.06055 1.44235 7.94336C1.47751 7.81445 1.42478 7.66211 1.28415 7.48633C1.40134 7.31055 1.50681 7.12891 1.60056 6.94141C1.69431 6.74219 1.78806 6.54883 1.88181 6.36133C1.98728 6.16211 2.09275 5.97461 2.19821 5.79883C2.3154 5.61133 2.45603 5.45312 2.62009 5.32422C2.54978 5.24219 2.51462 5.16602 2.51462 5.0957C2.51462 5.01367 2.5322 4.9375 2.56735 4.86719C2.60251 4.78516 2.64353 4.70898 2.6904 4.63867C2.73728 4.55664 2.77243 4.48047 2.79587 4.41016L3.30564 4.16406L3.18259 3.74219C3.3115 3.76562 3.40525 3.75977 3.46384 3.72461C3.53415 3.68945 3.58103 3.63672 3.60446 3.56641C3.63962 3.49609 3.66306 3.41992 3.67478 3.33789C3.69821 3.24414 3.72751 3.16211 3.76267 3.0918C3.82126 2.98633 3.90915 2.91016 4.02634 2.86328C4.27243 2.67578 4.51267 2.47656 4.74704 2.26562C4.99314 2.05469 5.23337 1.84961 5.46775 1.65039C5.71384 1.45117 5.96579 1.26367 6.2236 1.08789C6.48142 0.900391 6.76267 0.742188 7.06735 0.613281C7.27829 0.648438 7.44235 0.712891 7.55954 0.806641C7.68845 0.900391 7.7822 1.01172 7.84079 1.14062C7.9111 1.26953 7.96384 1.41602 7.999 1.58008C8.03415 1.73242 8.06931 1.88477 8.10446 2.03711C8.16306 2.23633 8.23337 2.40625 8.3154 2.54688C8.39743 2.6875 8.53806 2.80469 8.73728 2.89844C8.57321 3.17969 8.50876 3.46094 8.54392 3.74219C8.57907 4.01172 8.61423 4.29883 8.64939 4.60352C8.68454 4.88477 8.67868 5.16016 8.63181 5.42969C8.59665 5.69922 8.42673 5.93945 8.12204 6.15039C8.0986 6.23242 8.09275 6.32031 8.10446 6.41406C8.11618 6.50781 8.12204 6.60156 8.12204 6.69531C8.12204 6.78906 8.10446 6.87695 8.06931 6.95898C8.03415 7.04102 7.9697 7.10547 7.87595 7.15234C7.98142 7.28125 8.03415 7.41016 8.03415 7.53906C8.04587 7.66797 8.05173 7.79102 8.05173 7.9082C8.06345 8.02539 8.09275 8.13086 8.13962 8.22461C8.19821 8.31836 8.32712 8.38867 8.52634 8.43555C8.5615 8.58789 8.59079 8.70508 8.61423 8.78711C8.64939 8.85742 8.68454 8.91602 8.7197 8.96289C8.76657 9.00977 8.82517 9.05664 8.89548 9.10352C8.96579 9.13867 9.05954 9.19727 9.17673 9.2793C9.27048 9.30273 9.37595 9.30273 9.49314 9.2793C9.61032 9.25586 9.70407 9.29102 9.77439 9.38477C9.83298 9.32617 9.90329 9.29688 9.98532 9.29688C10.0674 9.28516 10.1435 9.28516 10.2138 9.29688L10.4424 9.68359C10.5713 9.58984 10.7177 9.50781 10.8818 9.4375C11.0459 9.36719 11.2041 9.30859 11.3564 9.26172C11.5322 9.21484 11.708 9.17383 11.8838 9.13867L13.5185 8.1543ZM6.76853 2.14258C6.66306 2.23633 6.53415 2.33008 6.38181 2.42383C6.22946 2.51758 6.07712 2.61719 5.92478 2.72266C5.78415 2.82812 5.6611 2.94531 5.55564 3.07422C5.45017 3.19141 5.38571 3.33203 5.36228 3.49609C5.09275 3.54297 4.90525 3.6543 4.79978 3.83008C4.69431 4.00586 4.60642 4.19922 4.5361 4.41016C4.46579 4.62109 4.38962 4.83203 4.30759 5.04297C4.22556 5.24219 4.07907 5.40039 3.86814 5.51758C3.79782 5.56445 3.73337 5.58789 3.67478 5.58789C3.6865 5.58789 3.65134 5.61133 3.56931 5.6582C3.4404 5.75195 3.32907 5.86914 3.23532 6.00977C3.14157 6.15039 3.05954 6.30273 2.98923 6.4668C2.93064 6.63086 2.87204 6.80078 2.81345 6.97656C2.76657 7.14062 2.7197 7.29297 2.67282 7.43359C2.50876 7.45703 2.38571 7.49219 2.30368 7.53906C2.22165 7.58594 2.16892 7.63867 2.14548 7.69727C2.13376 7.74414 2.13962 7.80273 2.16306 7.87305C2.1865 7.94336 2.22165 8.01953 2.26853 8.10156C2.3154 8.17188 2.36228 8.25391 2.40915 8.34766C2.46775 8.44141 2.51462 8.53516 2.54978 8.62891C2.58493 8.72266 2.60251 8.81641 2.60251 8.91016C2.61423 9.00391 2.59079 9.0918 2.5322 9.17383C2.69626 9.30273 2.85446 9.33203 3.00681 9.26172C3.15915 9.17969 3.29978 9.0918 3.42868 8.99805C3.47556 8.96289 3.52243 8.92773 3.56931 8.89258C3.6279 8.8457 3.6865 8.81055 3.74509 8.78711C4.01462 8.8457 4.26071 8.82812 4.48337 8.73438C4.70603 8.64062 4.9111 8.51172 5.0986 8.34766C5.2861 8.18359 5.46775 8.00781 5.64353 7.82031C5.81931 7.63281 5.99509 7.46875 6.17087 7.32812L6.03025 7.1875C6.24118 7.12891 6.38767 7.05273 6.4697 6.95898C6.56345 6.85352 6.62204 6.73633 6.64548 6.60742C6.66892 6.47852 6.66892 6.34375 6.64548 6.20312C6.62204 6.05078 6.60446 5.89258 6.59275 5.72852C6.58103 5.63477 6.57517 5.54688 6.57517 5.46484C6.58689 5.37109 6.61032 5.27734 6.64548 5.18359C6.55173 4.91406 6.53415 4.65625 6.59275 4.41016C6.66306 4.16406 6.75095 3.92969 6.85642 3.70703C6.9736 3.47266 7.08493 3.23828 7.1904 3.00391C7.29587 2.76953 7.3486 2.52344 7.3486 2.26562L6.76853 2.14258Z" stroke="black" stroke-width="0.4" mask="url(#path-1-outside-1)"/>
<path d="M22.4482 9.36719C22.4599 9.50781 22.4365 9.61328 22.3779 9.68359C22.3193 9.75391 22.2373 9.80664 22.1318 9.8418C22.0381 9.87695 21.9326 9.90625 21.8154 9.92969C21.6982 9.94141 21.5986 9.9707 21.5166 10.0176C21.1767 9.98242 20.8486 9.93555 20.5322 9.87695C20.2158 9.80664 19.9228 9.70703 19.6533 9.57812C19.3838 9.4375 19.1377 9.25586 18.915 9.0332C18.7041 8.81055 18.5224 8.5293 18.3701 8.18945C18.5224 7.94336 18.5752 7.67383 18.5283 7.38086C18.4814 7.07617 18.4345 6.7832 18.3877 6.50195C18.3525 6.2207 18.3584 5.96289 18.4052 5.72852C18.4638 5.49414 18.6689 5.30664 19.0205 5.16602C18.997 5.03711 18.997 4.89648 19.0205 4.74414C19.0556 4.5918 19.0146 4.46289 18.8974 4.35742C18.4873 4.49805 18.1299 4.69727 17.8252 4.95508C17.5205 5.21289 17.2275 5.49414 16.9463 5.79883C16.6767 6.10352 16.4013 6.41406 16.1201 6.73047C15.8506 7.03516 15.5517 7.30469 15.2236 7.53906C15.0713 7.55078 14.9072 7.54492 14.7314 7.52148C14.5674 7.48633 14.4267 7.5332 14.3095 7.66211C14.3213 7.74414 14.3506 7.81445 14.3974 7.87305C14.4443 7.93164 14.4795 7.99023 14.5029 8.04883C14.5381 8.10742 14.5556 8.17188 14.5556 8.24219C14.5556 8.30078 14.5146 8.37109 14.4326 8.45312C14.3154 8.57031 14.1865 8.66992 14.0459 8.75195C13.917 8.82227 13.7881 8.9043 13.6592 8.99805C13.542 9.08008 13.4424 9.17969 13.3603 9.29688C13.2783 9.41406 13.2373 9.57227 13.2373 9.77148C13.167 9.73633 13.1025 9.73047 13.0439 9.75391C12.9853 9.76562 12.9326 9.79492 12.8857 9.8418C12.8271 9.88867 12.7744 9.94141 12.7275 10C12.6806 10.0586 12.6338 10.1055 12.5869 10.1406C12.5634 10.1992 12.5693 10.2461 12.6045 10.2812C12.6396 10.3281 12.6806 10.375 12.7275 10.4219C12.6806 10.5508 12.622 10.627 12.5517 10.6504C12.4697 10.6855 12.3877 10.6914 12.3056 10.668C12.2119 10.6445 12.124 10.6035 12.042 10.5449C11.9482 10.498 11.8662 10.457 11.7959 10.4219C11.7607 10.2695 11.7373 10.0938 11.7256 9.89453C11.7138 9.69531 11.7197 9.50195 11.7431 9.31445C11.7666 9.11523 11.8134 8.92773 11.8838 8.75195C11.9541 8.57617 12.0595 8.42969 12.2002 8.3125C12.247 8.27734 12.2763 8.25977 12.2881 8.25977C12.2998 8.24805 12.3056 8.24219 12.3056 8.24219C12.3056 8.24219 12.3115 8.24219 12.3232 8.24219C12.3349 8.23047 12.3584 8.20703 12.3935 8.17188C12.4873 8.06641 12.5517 7.95508 12.5869 7.83789C12.622 7.70898 12.6513 7.58008 12.6748 7.45117C12.6982 7.32227 12.7334 7.19922 12.7802 7.08203C12.8154 6.95312 12.8857 6.8418 12.9912 6.74805C12.9443 6.56055 12.9443 6.39648 12.9912 6.25586C13.0498 6.10352 13.1201 5.96289 13.2021 5.83398C13.2959 5.69336 13.3838 5.55859 13.4658 5.42969C13.5595 5.28906 13.6181 5.13672 13.6416 4.97266C13.6533 4.91406 13.6533 4.86133 13.6416 4.81445C13.6416 4.75586 13.6416 4.69727 13.6416 4.63867C13.6181 4.45117 13.6357 4.31055 13.6943 4.2168C13.7646 4.11133 13.8467 4.0293 13.9404 3.9707C14.0459 3.90039 14.1513 3.83008 14.2568 3.75977C14.374 3.68945 14.4736 3.58398 14.5556 3.44336C14.8955 3.60742 15.0947 3.83008 15.1533 4.11133C15.2236 4.38086 15.247 4.68555 15.2236 5.02539C15.0244 5.1543 14.872 5.33594 14.7666 5.57031C14.6611 5.79297 14.5908 6.00977 14.5556 6.2207C14.5791 6.29102 14.6084 6.33203 14.6435 6.34375C14.6904 6.34375 14.7373 6.33789 14.7842 6.32617C14.8427 6.30273 14.8955 6.2793 14.9424 6.25586C14.9892 6.23242 15.0361 6.2207 15.083 6.2207C15.5049 5.92773 15.9209 5.59961 16.331 5.23633C16.7529 4.87305 17.081 4.45703 17.3154 3.98828C17.6552 3.82422 17.9775 3.63672 18.2822 3.42578C18.5869 3.20312 18.9209 3.03906 19.2842 2.93359L19.6884 2.5293C19.747 2.62305 19.8174 2.64648 19.8994 2.59961C19.9814 2.54102 20.0634 2.47656 20.1455 2.40625C20.2275 2.33594 20.3037 2.29492 20.374 2.2832C20.456 2.27148 20.5322 2.35352 20.6025 2.5293C20.7197 2.83398 20.749 3.13281 20.6904 3.42578C20.6318 3.70703 20.5381 3.98828 20.4092 4.26953C20.292 4.53906 20.1689 4.81445 20.04 5.0957C19.9111 5.37695 19.8349 5.66406 19.8115 5.95703C19.8115 6.02734 19.8115 6.10352 19.8115 6.18555C19.8115 6.25586 19.8056 6.33203 19.7939 6.41406C19.7705 6.66016 19.7353 6.92969 19.6884 7.22266C19.6533 7.50391 19.6709 7.76172 19.7412 7.99609C19.7998 8.20703 19.9228 8.39453 20.1103 8.55859C20.2978 8.72266 20.4619 8.88672 20.6025 9.05078C20.6845 9.03906 20.7666 9.04492 20.8486 9.06836C20.9306 9.0918 21.0068 9.11523 21.0771 9.13867C21.1592 9.16211 21.2353 9.17383 21.3056 9.17383C21.3759 9.16211 21.4463 9.12109 21.5166 9.05078C21.5986 9.01562 21.6748 9.02148 21.7451 9.06836C21.8271 9.10352 21.9033 9.15039 21.9736 9.20898C22.0439 9.26758 22.1142 9.32031 22.1845 9.36719C22.2666 9.40234 22.3545 9.40234 22.4482 9.36719Z" stroke="black" stroke-width="0.4" mask="url(#path-1-outside-1)"/>
<path d="M32.9775 9.36719C32.9892 9.50781 32.9658 9.61328 32.9072 9.68359C32.8486 9.75391 32.7666 9.80664 32.6611 9.8418C32.5674 9.87695 32.4619 9.90625 32.3447 9.92969C32.2275 9.94141 32.1279 9.9707 32.0459 10.0176C31.706 9.98242 31.3779 9.93555 31.0615 9.87695C30.7451 9.80664 30.4521 9.70703 30.1826 9.57812C29.9131 9.4375 29.667 9.25586 29.4443 9.0332C29.2334 8.81055 29.0517 8.5293 28.8994 8.18945C29.0517 7.94336 29.1045 7.67383 29.0576 7.38086C29.0107 7.07617 28.9638 6.7832 28.917 6.50195C28.8818 6.2207 28.8877 5.96289 28.9345 5.72852C28.9931 5.49414 29.1982 5.30664 29.5498 5.16602C29.5263 5.03711 29.5263 4.89648 29.5498 4.74414C29.5849 4.5918 29.5439 4.46289 29.4267 4.35742C29.0166 4.49805 28.6592 4.69727 28.3545 4.95508C28.0498 5.21289 27.7568 5.49414 27.4756 5.79883C27.206 6.10352 26.9306 6.41406 26.6494 6.73047C26.3799 7.03516 26.081 7.30469 25.7529 7.53906C25.6006 7.55078 25.4365 7.54492 25.2607 7.52148C25.0967 7.48633 24.956 7.5332 24.8388 7.66211C24.8506 7.74414 24.8799 7.81445 24.9267 7.87305C24.9736 7.93164 25.0088 7.99023 25.0322 8.04883C25.0674 8.10742 25.0849 8.17188 25.0849 8.24219C25.0849 8.30078 25.0439 8.37109 24.9619 8.45312C24.8447 8.57031 24.7158 8.66992 24.5752 8.75195C24.4463 8.82227 24.3174 8.9043 24.1884 8.99805C24.0713 9.08008 23.9717 9.17969 23.8896 9.29688C23.8076 9.41406 23.7666 9.57227 23.7666 9.77148C23.6963 9.73633 23.6318 9.73047 23.5732 9.75391C23.5146 9.76562 23.4619 9.79492 23.415 9.8418C23.3564 9.88867 23.3037 9.94141 23.2568 10C23.2099 10.0586 23.1631 10.1055 23.1162 10.1406C23.0927 10.1992 23.0986 10.2461 23.1338 10.2812C23.1689 10.3281 23.2099 10.375 23.2568 10.4219C23.2099 10.5508 23.1513 10.627 23.081 10.6504C22.999 10.6855 22.917 10.6914 22.8349 10.668C22.7412 10.6445 22.6533 10.6035 22.5713 10.5449C22.4775 10.498 22.3955 10.457 22.3252 10.4219C22.29 10.2695 22.2666 10.0938 22.2549 9.89453C22.2431 9.69531 22.249 9.50195 22.2724 9.31445C22.2959 9.11523 22.3427 8.92773 22.4131 8.75195C22.4834 8.57617 22.5888 8.42969 22.7295 8.3125C22.7763 8.27734 22.8056 8.25977 22.8174 8.25977C22.8291 8.24805 22.8349 8.24219 22.8349 8.24219C22.8349 8.24219 22.8408 8.24219 22.8525 8.24219C22.8642 8.23047 22.8877 8.20703 22.9228 8.17188C23.0166 8.06641 23.081 7.95508 23.1162 7.83789C23.1513 7.70898 23.1806 7.58008 23.2041 7.45117C23.2275 7.32227 23.2627 7.19922 23.3095 7.08203C23.3447 6.95312 23.415 6.8418 23.5205 6.74805C23.4736 6.56055 23.4736 6.39648 23.5205 6.25586C23.5791 6.10352 23.6494 5.96289 23.7314 5.83398C23.8252 5.69336 23.9131 5.55859 23.9951 5.42969C24.0888 5.28906 24.1474 5.13672 24.1709 4.97266C24.1826 4.91406 24.1826 4.86133 24.1709 4.81445C24.1709 4.75586 24.1709 4.69727 24.1709 4.63867C24.1474 4.45117 24.165 4.31055 24.2236 4.2168C24.2939 4.11133 24.3759 4.0293 24.4697 3.9707C24.5752 3.90039 24.6806 3.83008 24.7861 3.75977C24.9033 3.68945 25.0029 3.58398 25.0849 3.44336C25.4248 3.60742 25.624 3.83008 25.6826 4.11133C25.7529 4.38086 25.7763 4.68555 25.7529 5.02539C25.5537 5.1543 25.4013 5.33594 25.2959 5.57031C25.1904 5.79297 25.1201 6.00977 25.0849 6.2207C25.1084 6.29102 25.1377 6.33203 25.1728 6.34375C25.2197 6.34375 25.2666 6.33789 25.3134 6.32617C25.372 6.30273 25.4248 6.2793 25.4717 6.25586C25.5185 6.23242 25.5654 6.2207 25.6123 6.2207C26.0342 5.92773 26.4502 5.59961 26.8603 5.23633C27.2822 4.87305 27.6103 4.45703 27.8447 3.98828C28.1845 3.82422 28.5068 3.63672 28.8115 3.42578C29.1162 3.20312 29.4502 3.03906 29.8134 2.93359L30.2177 2.5293C30.2763 2.62305 30.3467 2.64648 30.4287 2.59961C30.5107 2.54102 30.5927 2.47656 30.6748 2.40625C30.7568 2.33594 30.833 2.29492 30.9033 2.2832C30.9853 2.27148 31.0615 2.35352 31.1318 2.5293C31.249 2.83398 31.2783 3.13281 31.2197 3.42578C31.1611 3.70703 31.0674 3.98828 30.9384 4.26953C30.8213 4.53906 30.6982 4.81445 30.5693 5.0957C30.4404 5.37695 30.3642 5.66406 30.3408 5.95703C30.3408 6.02734 30.3408 6.10352 30.3408 6.18555C30.3408 6.25586 30.3349 6.33203 30.3232 6.41406C30.2998 6.66016 30.2646 6.92969 30.2177 7.22266C30.1826 7.50391 30.2002 7.76172 30.2705 7.99609C30.3291 8.20703 30.4521 8.39453 30.6396 8.55859C30.8271 8.72266 30.9912 8.88672 31.1318 9.05078C31.2138 9.03906 31.2959 9.04492 31.3779 9.06836C31.4599 9.0918 31.5361 9.11523 31.6064 9.13867C31.6884 9.16211 31.7646 9.17383 31.8349 9.17383C31.9052 9.16211 31.9756 9.12109 32.0459 9.05078C32.1279 9.01562 32.2041 9.02148 32.2744 9.06836C32.3564 9.10352 32.4326 9.15039 32.5029 9.20898C32.5732 9.26758 32.6435 9.32031 32.7138 9.36719C32.7959 9.40234 32.8838 9.40234 32.9775 9.36719Z" stroke="black" stroke-width="0.4" mask="url(#path-1-outside-1)"/>
<path d="M46.249 8.1543C46.0849 8.43555 45.956 8.66406 45.8623 8.83984C45.7802 9.00391 45.6924 9.14453 45.5986 9.26172C45.5166 9.36719 45.417 9.4668 45.2998 9.56055C45.1943 9.64258 45.042 9.74805 44.8427 9.87695C44.7138 9.99414 44.5849 10.0938 44.456 10.1758C44.3506 10.2578 44.2451 10.3281 44.1396 10.3867C44.0459 10.4453 43.9697 10.4746 43.9111 10.4746C43.8877 10.4746 43.8642 10.4688 43.8408 10.457C43.8174 10.457 43.7939 10.457 43.7705 10.457C43.7002 10.457 43.6299 10.457 43.5595 10.457C43.5009 10.4688 43.4482 10.4277 43.4013 10.334C43.3662 10.3691 43.3369 10.4102 43.3134 10.457C43.29 10.5039 43.2666 10.5449 43.2431 10.5801C43.2197 10.627 43.1845 10.6621 43.1377 10.6855C43.1025 10.709 43.0498 10.709 42.9795 10.6855L42.8916 10.5801L42.6279 10.8086C42.2998 10.6445 41.9834 10.5039 41.6787 10.3867C41.3857 10.2812 41.122 10.1523 40.8877 10C40.6533 9.84766 40.4541 9.6543 40.29 9.41992C40.1259 9.17383 40.0088 8.83984 39.9384 8.41797C39.8799 8.34766 39.8154 8.28906 39.7451 8.24219C39.6748 8.18359 39.5927 8.16602 39.499 8.18945C39.3818 8.38867 39.2412 8.55859 39.0771 8.69922C38.9131 8.83984 38.749 8.99219 38.5849 9.15625C38.5263 9.21484 38.4795 9.2793 38.4443 9.34961C38.4092 9.41992 38.3623 9.48438 38.3037 9.54297C38.2099 9.64844 38.0986 9.72461 37.9697 9.77148C37.8408 9.80664 37.7119 9.8418 37.583 9.87695C37.4541 9.91211 37.331 9.9707 37.2138 10.0527C37.1084 10.1348 37.0322 10.2754 36.9853 10.4746C36.8447 10.3926 36.7041 10.3691 36.5634 10.4043C36.458 10.4277 36.3467 10.4512 36.2295 10.4746C36.1123 10.5098 35.9951 10.5273 35.8779 10.5273C35.7724 10.5391 35.667 10.5273 35.5615 10.4922C35.456 10.457 35.3623 10.3809 35.2802 10.2637C35.1162 10.334 34.9638 10.3281 34.8232 10.2461C34.6826 10.1758 34.5478 10.0762 34.4189 9.94727C34.3017 9.80664 34.1845 9.66016 34.0674 9.50781C33.9502 9.35547 33.8388 9.24414 33.7334 9.17383C33.6631 8.98633 33.6689 8.82812 33.7509 8.69922C33.8213 8.55859 33.9033 8.42969 33.997 8.3125C34.0791 8.18359 34.1377 8.06055 34.1728 7.94336C34.208 7.81445 34.1552 7.66211 34.0146 7.48633C34.1318 7.31055 34.2373 7.12891 34.331 6.94141C34.4248 6.74219 34.5185 6.54883 34.6123 6.36133C34.7177 6.16211 34.8232 5.97461 34.9287 5.79883C35.0459 5.61133 35.1865 5.45312 35.3506 5.32422C35.2802 5.24219 35.2451 5.16602 35.2451 5.0957C35.2451 5.01367 35.2627 4.9375 35.2978 4.86719C35.333 4.78516 35.374 4.70898 35.4209 4.63867C35.4677 4.55664 35.5029 4.48047 35.5263 4.41016L36.0361 4.16406L35.9131 3.74219C36.042 3.76562 36.1357 3.75977 36.1943 3.72461C36.2646 3.68945 36.3115 3.63672 36.3349 3.56641C36.3701 3.49609 36.3935 3.41992 36.4052 3.33789C36.4287 3.24414 36.458 3.16211 36.4931 3.0918C36.5517 2.98633 36.6396 2.91016 36.7568 2.86328C37.0029 2.67578 37.2431 2.47656 37.4775 2.26562C37.7236 2.05469 37.9638 1.84961 38.1982 1.65039C38.4443 1.45117 38.6963 1.26367 38.9541 1.08789C39.2119 0.900391 39.4931 0.742188 39.7978 0.613281C40.0088 0.648438 40.1728 0.712891 40.29 0.806641C40.4189 0.900391 40.5127 1.01172 40.5713 1.14062C40.6416 1.26953 40.6943 1.41602 40.7295 1.58008C40.7646 1.73242 40.7998 1.88477 40.8349 2.03711C40.8935 2.23633 40.9638 2.40625 41.0459 2.54688C41.1279 2.6875 41.2685 2.80469 41.4677 2.89844C41.3037 3.17969 41.2392 3.46094 41.2744 3.74219C41.3095 4.01172 41.3447 4.29883 41.3799 4.60352C41.415 4.88477 41.4092 5.16016 41.3623 5.42969C41.3271 5.69922 41.1572 5.93945 40.8525 6.15039C40.8291 6.23242 40.8232 6.32031 40.8349 6.41406C40.8467 6.50781 40.8525 6.60156 40.8525 6.69531C40.8525 6.78906 40.8349 6.87695 40.7998 6.95898C40.7646 7.04102 40.7002 7.10547 40.6064 7.15234C40.7119 7.28125 40.7646 7.41016 40.7646 7.53906C40.7763 7.66797 40.7822 7.79102 40.7822 7.9082C40.7939 8.02539 40.8232 8.13086 40.8701 8.22461C40.9287 8.31836 41.0576 8.38867 41.2568 8.43555C41.292 8.58789 41.3213 8.70508 41.3447 8.78711C41.3799 8.85742 41.415 8.91602 41.4502 8.96289C41.497 9.00977 41.5556 9.05664 41.6259 9.10352C41.6963 9.13867 41.79 9.19727 41.9072 9.2793C42.0009 9.30273 42.1064 9.30273 42.2236 9.2793C42.3408 9.25586 42.4345 9.29102 42.5049 9.38477C42.5634 9.32617 42.6338 9.29688 42.7158 9.29688C42.7978 9.28516 42.874 9.28516 42.9443 9.29688L43.1728 9.68359C43.3017 9.58984 43.4482 9.50781 43.6123 9.4375C43.7763 9.36719 43.9345 9.30859 44.0869 9.26172C44.2627 9.21484 44.4384 9.17383 44.6142 9.13867L46.249 8.1543ZM39.499 2.14258C39.3935 2.23633 39.2646 2.33008 39.1123 2.42383C38.9599 2.51758 38.8076 2.61719 38.6552 2.72266C38.5146 2.82812 38.3916 2.94531 38.2861 3.07422C38.1806 3.19141 38.1162 3.33203 38.0927 3.49609C37.8232 3.54297 37.6357 3.6543 37.5302 3.83008C37.4248 4.00586 37.3369 4.19922 37.2666 4.41016C37.1963 4.62109 37.1201 4.83203 37.0381 5.04297C36.956 5.24219 36.8095 5.40039 36.5986 5.51758C36.5283 5.56445 36.4638 5.58789 36.4052 5.58789C36.417 5.58789 36.3818 5.61133 36.2998 5.6582C36.1709 5.75195 36.0595 5.86914 35.9658 6.00977C35.872 6.15039 35.79 6.30273 35.7197 6.4668C35.6611 6.63086 35.6025 6.80078 35.5439 6.97656C35.497 7.14062 35.4502 7.29297 35.4033 7.43359C35.2392 7.45703 35.1162 7.49219 35.0342 7.53906C34.9521 7.58594 34.8994 7.63867 34.8759 7.69727C34.8642 7.74414 34.8701 7.80273 34.8935 7.87305C34.917 7.94336 34.9521 8.01953 34.999 8.10156C35.0459 8.17188 35.0927 8.25391 35.1396 8.34766C35.1982 8.44141 35.2451 8.53516 35.2802 8.62891C35.3154 8.72266 35.333 8.81641 35.333 8.91016C35.3447 9.00391 35.3213 9.0918 35.2627 9.17383C35.4267 9.30273 35.5849 9.33203 35.7373 9.26172C35.8896 9.17969 36.0302 9.0918 36.1592 8.99805C36.206 8.96289 36.2529 8.92773 36.2998 8.89258C36.3584 8.8457 36.417 8.81055 36.4756 8.78711C36.7451 8.8457 36.9912 8.82812 37.2138 8.73438C37.4365 8.64062 37.6416 8.51172 37.8291 8.34766C38.0166 8.18359 38.1982 8.00781 38.374 7.82031C38.5498 7.63281 38.7256 7.46875 38.9013 7.32812L38.7607 7.1875C38.9717 7.12891 39.1181 7.05273 39.2002 6.95898C39.2939 6.85352 39.3525 6.73633 39.3759 6.60742C39.3994 6.47852 39.3994 6.34375 39.3759 6.20312C39.3525 6.05078 39.3349 5.89258 39.3232 5.72852C39.3115 5.63477 39.3056 5.54688 39.3056 5.46484C39.3174 5.37109 39.3408 5.27734 39.3759 5.18359C39.2822 4.91406 39.2646 4.65625 39.3232 4.41016C39.3935 4.16406 39.4814 3.92969 39.5869 3.70703C39.7041 3.47266 39.8154 3.23828 39.9209 3.00391C40.0263 2.76953 40.0791 2.52344 40.0791 2.26562L39.499 2.14258Z" stroke="black" stroke-width="0.4" mask="url(#path-1-outside-1)"/>
<path d="M64.5127 6.51953C64.2431 6.64844 64.0615 6.80664 63.9677 6.99414C63.874 7.18164 63.7978 7.375 63.7392 7.57422C63.6924 7.77344 63.6279 7.9668 63.5459 8.1543C63.4756 8.33008 63.3174 8.47656 63.0713 8.59375C63.0127 8.80469 62.8955 8.95117 62.7197 9.0332C62.5556 9.11523 62.3799 9.19141 62.1924 9.26172C62.0049 9.32031 61.8349 9.40234 61.6826 9.50781C61.542 9.61328 61.4717 9.79492 61.4717 10.0527C61.2373 10.1816 60.9795 10.2988 60.6982 10.4043C60.4287 10.5098 60.1416 10.5859 59.8369 10.6328C59.5439 10.6914 59.2509 10.7148 58.958 10.7031C58.665 10.6914 58.3896 10.6328 58.1318 10.5273C57.956 10.4453 57.7861 10.3398 57.622 10.2109C57.5634 10.1641 57.5049 10.123 57.4463 10.0879C57.3994 10.0645 57.3467 10.0234 57.2881 9.96484C57.1474 9.82422 57.0302 9.66016 56.9365 9.47266C56.8427 9.28516 56.7666 9.08594 56.708 8.875C56.6494 8.66406 56.6025 8.45312 56.5674 8.24219C56.5322 8.03125 56.5029 7.83203 56.4795 7.64453L57.1299 5.88672C56.79 5.61719 56.5146 5.30664 56.3037 4.95508C56.0927 4.5918 55.8349 4.25781 55.5302 3.95312C55.4717 4.03516 55.3955 4.10547 55.3017 4.16406C55.208 4.22266 55.1728 4.31641 55.1963 4.44531L55.372 4.60352C54.9853 5.02539 54.5927 5.50586 54.1943 6.04492C53.8076 6.57227 53.5029 7.10547 53.2802 7.64453C53.0224 7.63281 52.8408 7.69727 52.7353 7.83789C52.6299 7.9668 52.542 8.11914 52.4717 8.29492C52.4013 8.45898 52.3134 8.61133 52.208 8.75195C52.1025 8.89258 51.9267 8.95117 51.6806 8.92773C51.622 9.05664 51.5634 9.19727 51.5049 9.34961C51.4463 9.49023 51.3759 9.625 51.2939 9.75391C51.2119 9.88281 51.1123 9.98828 50.9951 10.0703C50.8779 10.1641 50.7314 10.2109 50.5556 10.2109C50.4619 10.1172 50.4092 10.0176 50.3974 9.91211C50.3857 9.80664 50.3974 9.70117 50.4326 9.5957C50.4677 9.47852 50.5146 9.36719 50.5732 9.26172C50.6318 9.14453 50.6728 9.0332 50.6963 8.92773C50.79 8.58789 50.9599 8.2832 51.206 8.01367C51.4521 7.73242 51.6982 7.45703 51.9443 7.1875C52.1904 6.90625 52.4013 6.61328 52.5771 6.30859C52.7529 6.00391 52.8232 5.64648 52.7881 5.23633C52.9404 5.22461 53.0927 5.19531 53.2451 5.14844C53.4092 5.08984 53.5556 5.01953 53.6845 4.9375C53.8252 4.84375 53.9306 4.73242 54.0009 4.60352C54.083 4.46289 54.1123 4.29883 54.0888 4.11133C53.9951 4.06445 53.9424 4 53.9306 3.91797C53.9189 3.82422 53.9189 3.73047 53.9306 3.63672C54.1884 3.55469 54.3935 3.41406 54.5459 3.21484C54.7099 3.00391 54.8564 2.78125 54.9853 2.54688C55.1142 2.3125 55.2373 2.07812 55.3545 1.84375C55.4834 1.59766 55.6474 1.38672 55.8467 1.21094C56.0107 1.30469 56.1748 1.38672 56.3388 1.45703C56.5029 1.51562 56.6611 1.59766 56.8134 1.70312C56.708 1.84375 56.6435 1.97852 56.6201 2.10742C56.5967 2.23633 56.5849 2.37109 56.5849 2.51172C56.5849 2.64062 56.5849 2.76953 56.5849 2.89844C56.5849 3.02734 56.5498 3.16211 56.4795 3.30273C56.667 3.4668 56.8252 3.66016 56.9541 3.88281C57.083 4.10547 57.247 4.29297 57.4463 4.44531C57.5869 4.33984 57.7451 4.28711 57.9209 4.28711C58.0967 4.27539 58.2724 4.27539 58.4482 4.28711C58.6357 4.28711 58.8115 4.27539 58.9756 4.25195C59.1396 4.2168 59.2744 4.11719 59.3799 3.95312C59.4267 4 59.497 4.02344 59.5908 4.02344C59.6845 4.02344 59.7783 4.02344 59.872 4.02344C59.9658 4.02344 60.0478 4.04102 60.1181 4.07617C60.1884 4.09961 60.2295 4.15234 60.2412 4.23438C60.2529 4.32812 60.247 4.39258 60.2236 4.42773C60.2119 4.46289 60.1943 4.52148 60.1709 4.60352C60.1474 4.69727 60.1416 4.74414 60.1533 4.74414C60.165 4.74414 60.1533 4.78516 60.1181 4.86719C60.0595 5.01953 59.9599 5.14844 59.8193 5.25391C59.6904 5.35938 59.5556 5.46484 59.415 5.57031C59.2861 5.66406 59.1631 5.77539 59.0459 5.9043C58.9404 6.02148 58.8877 6.17383 58.8877 6.36133C58.6299 6.45508 58.4482 6.5957 58.3427 6.7832C58.2373 6.95898 58.167 7.16406 58.1318 7.39844C58.0967 7.62109 58.0732 7.85547 58.0615 8.10156C58.0498 8.33594 58.0088 8.55273 57.9384 8.75195L58.0967 8.92773L58.2373 8.75195C58.4013 8.98633 58.5947 9.13281 58.8174 9.19141C59.0517 9.25 59.292 9.26758 59.5381 9.24414C59.6552 9.06836 59.79 8.92773 59.9424 8.82227C60.1064 8.7168 60.2763 8.62891 60.4521 8.55859C60.6396 8.48828 60.8271 8.42383 61.0146 8.36523C61.2138 8.30664 61.4013 8.23633 61.5771 8.1543C61.7177 8.08398 61.8349 8.00781 61.9287 7.92578C62.0342 7.84375 62.1455 7.75 62.2627 7.64453C62.6142 7.31641 62.9599 6.99414 63.2998 6.67773C63.6513 6.36133 64.0029 6.03906 64.3545 5.71094C64.4248 5.71094 64.4717 5.74609 64.4951 5.81641C64.5185 5.88672 64.5302 5.96875 64.5302 6.0625C64.5302 6.14453 64.5244 6.23242 64.5127 6.32617C64.5127 6.4082 64.5127 6.47266 64.5127 6.51953Z" stroke="black" stroke-width="0.4" mask="url(#path-1-outside-1)"/>
<path d="M69.2529 8.73438C69.2412 8.91016 69.2177 9.11523 69.1826 9.34961C69.1474 9.58398 69.083 9.80078 68.9892 10C68.8955 10.1992 68.7724 10.3691 68.6201 10.5098C68.4677 10.6504 68.2685 10.709 68.0224 10.6855C67.8818 10.6738 67.7705 10.6328 67.6884 10.5625C67.5947 10.4922 67.5185 10.4043 67.4599 10.2988C67.4013 10.1934 67.3603 10.082 67.3369 9.96484C67.3017 9.83594 67.2841 9.71289 67.2841 9.5957V9.22656C67.3193 9.0625 67.4189 8.88086 67.583 8.68164C67.7353 8.4707 67.8935 8.31836 68.0576 8.22461C68.2334 8.13086 68.3916 8.13086 68.5322 8.22461C68.6728 8.31836 68.749 8.57617 68.7607 8.99805C68.8427 8.92773 68.9189 8.85742 68.9892 8.78711C69.0595 8.70508 69.1474 8.6875 69.2529 8.73438Z" stroke="black" stroke-width="0.4" mask="url(#path-1-outside-1)"/>
</svg>
