<svg width="32" height="32" viewBox="0 0 32 32" fill="none" xmlns="http://www.w3.org/2000/svg">
<path d="M3.99996 4H28C28.3536 4 28.6927 4.14048 28.9428 4.39052C29.1928 4.64057 29.3333 4.97971 29.3333 5.33333V26.6667C29.3333 27.0203 29.1928 27.3594 28.9428 27.6095C28.6927 27.8595 28.3536 28 28 28H3.99996C3.64634 28 3.3072 27.8595 3.05715 27.6095C2.8071 27.3594 2.66663 27.0203 2.66663 26.6667V5.33333C2.66663 4.97971 2.8071 4.64057 3.05715 4.39052C3.3072 4.14048 3.64634 4 3.99996 4V4ZM16.08 15.5773L7.53063 8.31733L5.80396 10.3493L16.0973 19.0893L26.2053 10.3427L24.4613 8.32533L16.0813 15.5773H16.08Z" fill="#2C2C2C"/>
</svg>
